<svg xmlns="http://www.w3.org/2000/svg" xmlns:xlink="http://www.w3.org/1999/xlink" width="30" height="30" viewBox="0 0 30 30" fill="none"><defs><rect id="path_0" x="0" y="0" width="30" height="30" /></defs><g opacity="1" transform="translate(0 0)  rotate(0 15 15)"><mask id="bg-mask" fill="white"><use xlink:href="#path_0"></use></mask><g mask="url(#bg-mask)" ><path id="矩形 1" fill-rule="evenodd" style="fill:#0075D7" transform="translate(0 0)  rotate(0 15 15)" opacity="1" d="M0,30L30,30L30,0L0,0L0,30Z " /><path id="分组 1" fill-rule="evenodd" style="fill:#FFFFFF" transform="translate(6.000000000000002 10.093995727466979)  rotate(0 9 4.906004272533067)" opacity="1" d="M10.1366 0.017181L7.63656 0.017181L7.63656 9.74718L10.1366 9.74718L10.1366 6.45718C10.1766 6.48718 10.2066 6.52718 10.2266 6.56718C10.7966 7.59718 11.3666 8.61718 11.9166 9.65718C11.9766 9.75718 12.0266 9.79718 12.1466 9.79718C12.2866 9.79718 12.4066 9.80718 12.5466 9.80718L14.4266 9.80718C14.3766 9.67718 14.3266 9.51718 14.2366 9.39718C13.5266 8.02718 12.8166 6.66718 12.0966 5.30718L12.0966 5.30718C11.9566 5.05718 11.9566 4.75718 12.0966 4.50718L14.3766 0.157181C14.3866 0.117181 14.4066 0.067181 14.4366 0.017181L11.8466 0.017181C11.8166 0.017181 11.7666 0.067181 11.7466 0.107181C11.6466 0.327181 11.5366 0.557181 11.4166 0.777181L10.2766 3.05718C10.2466 3.10718 10.2066 3.17718 10.1766 3.22718C10.1566 3.22718 10.1566 3.22718 10.1366 3.21718L10.1366 0.017181Z M14.6481 5.39072L14.6481 9.79072L16.7881 9.79072L16.7881 6.29072L17.9981 6.29072L17.9981 4.20072C17.9481 4.20072 17.9181 4.18072 17.8781 4.18072L17.8781 4.18072L15.9281 4.18072C15.6381 4.18072 15.3381 4.20072 15.0981 4.37072C14.7381 4.61072 14.6481 4.99072 14.6481 5.39072Z M2.33 0L2.02 0C1.35 0.02 0.67 0.02 0 0.02L0 0.74L2 0.74L2 2.09L0 2.09L0 2.83L2 2.83L2 4.2L0.04 4.2L0.04 4.91L2.35 4.91C2.64 4.91 2.75 4.8 2.75 4.49L2.75 0.47C2.75 0.16 2.61 0.04 2.33 0Z M6.08221 0.0188173L3.88221 0.0188173C3.63221 0.0188173 3.49221 0.158817 3.49221 0.448817C3.49221 1.77882 3.47221 3.10882 3.47221 4.43882C3.47221 4.78882 3.61221 4.90882 3.95221 4.90882L5.87221 4.90882C6.20221 4.90882 6.34221 4.76882 6.34221 4.41882L6.34221 2.65882C6.32221 2.55882 6.30221 2.46882 6.29221 2.36882L6.29221 2.36882C6.27221 2.20882 6.16221 2.12882 6.01221 2.10882C5.87221 2.08882 5.73221 2.08882 5.58221 2.08882L4.20221 2.08882L4.20221 0.708817L6.18221 0.708817C6.17221 0.468817 6.15221 0.238817 6.13221 0.0388173C6.11221 0.0188173 6.10221 0.0188173 6.08221 0.0188173Z M5.5259 4.16042L5.5259 2.85042L4.2159 2.85042L4.2159 4.16042L5.5259 4.16042L5.5259 4.16042Z " /></g></g></svg>