<svg xmlns="http://www.w3.org/2000/svg" xmlns:xlink="http://www.w3.org/1999/xlink" width="160" height="160" viewBox="0 0 160 160" fill="none"><defs><rect id="path_0" x="0" y="0" width="160" height="160" /><rect id="path_1" x="0" y="0" width="128" height="128" /><linearGradient id="linear_0" x1="30.355884%" y1="0%" x2="31.355884%" y2="100%" gradientUnits="objectBoundingBox"><stop offset="0" stop-color="#29CDFF" stop-opacity="1" /><stop offset="0.378600687" stop-color="#148EFF" stop-opacity="1" /><stop offset="1" stop-color="#0A60FF" stop-opacity="1" /></linearGradient><linearGradient id="linear_1" x1="-19.819155300000002%" y1="-36.7931464%" x2="138.57919%" y2="157.637507%" gradientUnits="objectBoundingBox"><stop offset="0" stop-color="#29CDFF" stop-opacity="1" /><stop offset="1" stop-color="#0F78FF" stop-opacity="1" /></linearGradient><linearGradient id="linear_2" x1="68.1279872%" y1="-35.6905737%" x2="30.440091400000004%" y2="114.942679%" gradientUnits="objectBoundingBox"><stop offset="0" stop-color="#FA8E7D" stop-opacity="1" /><stop offset="0.512635191" stop-color="#F74A5C" stop-opacity="1" /><stop offset="1" stop-color="#F51D2C" stop-opacity="1" /></linearGradient></defs><g opacity="1" transform="translate(0 0)  rotate(0 80 80)"><mask id="bg-mask" fill="white"><use xlink:href="#path_0"></use></mask><g mask="url(#bg-mask)" ><path id="矩形 1" fill-rule="evenodd" style="fill:#FFFFFF" transform="translate(0 0)  rotate(0 80 80)" opacity="1" d="M0,160L160,160L160,0L0,0L0,160Z " /><g opacity="1" transform="translate(16 16)  rotate(0 64 64)"><mask id="bg-mask" fill="white"><use xlink:href="#path_1"></use></mask><g mask="url(#bg-mask)" ><g opacity="1" transform="translate(19.000000000000398 9.411433229643535)  rotate(0 44.97999999999979 54.84788427616181)"><g opacity="1" transform="translate(0 0)  rotate(0 44.97999999999979 54.84788427616181)"><path id="Path-Copy" fill-rule="evenodd" fill="url(#linear_0)" transform="translate(22.869999999999663 0)  rotate(0 33.544999999999995 54.82336388841868)" opacity="1" d="M0,90.07L17.94,107.9C20.26,110.21 24.01,110.23 26.36,107.94L64.07,71.13C66,69.25 67.09,66.67 67.09,63.98L67.09,4C67.09,2.96 66.69,1.97 65.97,1.22C64.44,-0.37 61.9,-0.41 60.31,1.12L46.68,14.26C45.91,15.01 45.47,16.03 45.46,17.11L45.13,57.55C45.12,59.16 44.46,60.7 43.3,61.82L22.34,82.07C21.63,82.95 11.38,93.07 0,90.07Z " /><path id="Path" fill-rule="evenodd" fill="url(#linear_1)" transform="translate(0 0)  rotate(0 33.9999999999998 54.8478842761618)" opacity="1" d="M20.41,14.26L6.78,1.12C5.19,-0.41 2.65,-0.37 1.12,1.22C0.4,1.97 0,2.96 0,4L0,63.98C0,66.67 1.09,69.25 3.02,71.13L40.78,107.99C43.11,110.26 46.82,110.27 49.15,108L68,89.7C56.62,92.7 45.46,82.95 44.75,82.07L23.79,61.82C22.63,60.7 21.97,59.16 21.96,57.55L21.63,17.11C21.62,16.03 21.18,15.01 20.41,14.26Z " /><path id="Path" fill-rule="evenodd" fill="url(#linear_2)" transform="translate(26.946636828219912 0.033039421356457765)  rotate(0 17.72293263588985 9.60836533547595)" opacity="1" d="M19.13,18.65L34.84,3.44C35.23,3.06 35.45,2.54 35.45,2C35.45,0.9 34.55,0 33.45,0L2,0C1.46,0 0.94,0.22 0.56,0.61C-0.21,1.4 -0.18,2.67 0.61,3.44L16.35,18.65C17.13,19.4 18.36,19.4 19.13,18.65Z " /></g></g></g></g></g></g></svg>