<svg xmlns="http://www.w3.org/2000/svg" xmlns:xlink="http://www.w3.org/1999/xlink" width="32" height="32" viewBox="0 0 32 32" fill="none"><defs><linearGradient id="linear_0" x1="35.650793650793766%" y1="6.310956128262774%" x2="162.56593409070413%" y2="6.310956128262774%" gradientUnits="objectBoundingBox"><stop offset="0" stop-color="#2D3294" stop-opacity="1" /><stop offset="0.14" stop-color="#2D3294" stop-opacity="1" /><stop offset="1" stop-color="#8CC634" stop-opacity="1" /></linearGradient><linearGradient id="linear_1" x1="0.00019641850484156524%" y1="50.00017919798153%" x2="99.99999999999983%" y2="50.00017919798153%" gradientUnits="objectBoundingBox"><stop offset="0" stop-color="#2D3294" stop-opacity="1" /><stop offset="0.14" stop-color="#2D3294" stop-opacity="1" /><stop offset="1" stop-color="#22ACE4" stop-opacity="1" /></linearGradient><linearGradient id="linear_2" x1="51.3814610877024%" y1="1.201965182099744%" x2="115.61297269499829%" y2="1.201965182099744%" gradientUnits="objectBoundingBox"><stop offset="0" stop-color="#2D3294" stop-opacity="1" /><stop offset="0.14" stop-color="#2D3294" stop-opacity="1" /><stop offset="1" stop-color="#22ACE4" stop-opacity="1" /></linearGradient></defs><g opacity="1" transform="translate(0 0)  rotate(0 16 16)"><path id="矩形 1" fill-rule="evenodd" style="fill:#FFFFFF" transform="translate(0 0)  rotate(0 16 16)" opacity="1" d="M0,32L32,32L32,0L0,0L0,32Z " /><g opacity="1" transform="translate(4 8.134906811302244)  rotate(0 12 7.865093188697642)"><path id="路径 90" fill-rule="evenodd" style="fill:#8CC634" transform="translate(3.0429477359465387 9.21478972494014)  rotate(0 2.051881214399509 1.7949740888855947)" opacity="1" d="M2.82,3.59C3.28,3.49 3.72,3.3 4.1,3.04L2.85,0L1.25,0L0,3.03C0.38,3.29 0.82,3.49 1.29,3.59L2.05,1.57L2.82,3.59Z " /><path id="路径 91" fill-rule="evenodd" style="fill:#8CC634" transform="translate(1.6005054609864249 13.507201628001772)  rotate(0 1.1253494469818985 1.1114515385309118)" opacity="1" d="M1.62,2.22L2.25,0.56C1.78,0.44 1.33,0.25 0.92,0L0,2.22L1.62,2.22Z " /><path id="路径 92" fill-rule="evenodd" style="fill:#8CC634" transform="translate(6.338507993963101 13.515191904457188)  rotate(0 1.1231374879972849 1.1074564003033278)" opacity="1" d="M2.25,2.21L1.33,0C0.92,0.25 0.47,0.44 0,0.56L0.62,2.21L2.25,2.21Z " /><path id="路径 93" fill-rule="evenodd" style="fill:#8CC634" transform="translate(15.22794237336392 9.21483056110582)  rotate(0 0.6935342170204004 3.2576779081447316)" opacity="1" d="M0,6.52L1.39,6.52L1.39,0L0,0L0,6.52Z " /><path id="分组 25" fill-rule="evenodd" style="fill:#8CC634" transform="translate(17.01576332719468 9.214844173161389)  rotate(0 3.4921183364026596 3.2576506840341524)" opacity="1" d="M4.42899 3.85259L3.49899 1.57259L2.56899 3.85259L4.42899 3.85259Z M2.7 0L0 6.52L1.62 6.52L2.26 5.01L4.73 5.01L5.36 6.52L6.98 6.52L4.29 0L2.7 0Z " /><path id="路径 96" fill-rule="evenodd" style="fill:#8CC634" transform="translate(8.672921027959712 9.214762500829687)  rotate(0 2.9159812902299898 3.2576506840341524)" opacity="1" d="M2.52,0C2.14,0 1.85,0.01 1.65,0.03C1.08,0.09 0.66,0.31 0.4,0.67C0.32,0.78 0.26,0.89 0.21,1C0.07,1.29 0,1.6 0,1.92C0,2.22 0.06,2.49 0.17,2.74C0.19,2.79 0.21,2.83 0.23,2.87C0.34,3.07 0.48,3.24 0.64,3.38C0.97,3.65 1.5,3.78 2.24,3.78L3.17,3.78C3.5,3.78 3.74,3.82 3.89,3.91C4.16,4.05 4.29,4.28 4.29,4.6C4.29,4.87 4.17,5.08 3.95,5.22C3.79,5.31 3.47,5.35 3,5.35L0.16,5.35L0.59,6.52L3.29,6.52C3.79,6.52 4.17,6.5 4.42,6.46C4.92,6.37 5.3,6.1 5.56,5.66C5.74,5.34 5.83,4.99 5.83,4.59C5.83,4.23 5.76,3.9 5.63,3.58C5.45,3.19 5.13,2.92 4.67,2.76C4.41,2.67 4.01,2.63 3.48,2.63L2.72,2.63C2.33,2.63 2.06,2.59 1.9,2.51C1.65,2.41 1.52,2.2 1.52,1.89C1.52,1.51 1.67,1.29 1.96,1.22C2.11,1.19 2.4,1.17 2.83,1.16L5.47,1.16L5.47,0L2.52,0Z " /><path id="路径 97" fill-rule="evenodd" fill="url(#linear_0)" transform="translate(0 4.157176133756704)  rotate(0 3.8590176746866183 5.101914025124474)" opacity="1" d="M6.37,10.04C6.85,9.92 7.3,9.73 7.72,9.48L7.1,7.98L7.07,7.99C6.7,8.25 6.28,8.42 5.83,8.52C5.32,8.63 4.84,8.62 4.36,8.52C3.91,8.42 3.49,8.24 3.12,7.98C2.17,7.33 1.6,6.25 1.6,5.1C1.6,3.17 3.17,1.6 5.1,1.6C5.23,1.6 5.35,1.61 5.47,1.62C5.95,1.67 6.4,1.82 6.82,2.06L7.1,2.22L5.46,0.02C5.34,0.01 5.22,0 5.1,0C2.29,0 0,2.29 0,5.1C0,6.89 0.92,8.52 2.45,9.46C2.88,9.72 3.34,9.92 3.82,10.04C4.24,10.15 4.67,10.2 5.1,10.2C5.53,10.2 5.96,10.15 6.37,10.04Z " /><path id="路径 98" fill-rule="evenodd" fill="url(#linear_1)" transform="translate(14.144953642444213 4.157121685535455)  rotate(0 3.4650643765139875 1.8990246395215913)" opacity="1" d="M1.63,1.62C1.75,1.61 1.87,1.6 1.99,1.6C3.39,1.6 4.65,2.43 5.21,3.72L5.24,3.8L6.93,3.8L6.88,3.63C6.23,1.49 4.23,0 1.99,0C1.87,0 1.75,0.01 1.64,0.02L0,2.22L0.28,2.06C0.7,1.82 1.15,1.67 1.63,1.62Z " /><path id="路径 99" fill-rule="evenodd" fill="url(#linear_2)" transform="translate(5.461551331911291 0)  rotate(0 5.15922758392257 3.186241841983338)" opacity="1" d="M0,4.17L1.63,6.37L1.57,6.06C1.51,5.8 1.48,5.54 1.48,5.28C1.48,5.07 1.5,4.85 1.54,4.64C1.85,2.88 3.37,1.6 5.16,1.6C6.94,1.6 8.47,2.88 8.78,4.64C8.82,4.85 8.84,5.07 8.84,5.28C8.84,5.54 8.81,5.8 8.75,6.06L8.68,6.37L10.32,4.17C9.8,1.75 7.65,0 5.16,0C2.67,0 0.52,1.75 0,4.17Z " /></g></g></svg>