<svg width="128" height="128" viewBox="0 0 128 128" fill="none" xmlns="http://www.w3.org/2000/svg">
<rect width="128" height="128" fill="white"/>
<rect width="128" height="128" fill="#8913fc"/>
<path fill-rule="evenodd" clip-rule="evenodd" d="M39.0702 30C34.106 30 30.4329 34.3257 30.5973 39.017C30.7551 43.524 30.5501 49.3611 29.074 54.1214C27.5936 58.8956 25.0897 61.9198 21 62.3081V66.6918C25.0897 67.0802 27.5936 70.1044 29.074 74.8786C30.5501 79.6389 30.7551 85.476 30.5973 89.983C30.4329 94.6736 34.106 99 39.0709 99H89.9364C94.9006 99 98.573 94.6743 98.4086 89.983C98.2508 85.476 98.4558 79.6389 99.9319 74.8786C101.413 70.1044 103.91 67.0802 108 66.6918V62.3081C103.91 61.9198 101.413 58.8956 99.9319 54.1214C98.4558 49.3618 98.2508 43.524 98.4086 39.017C98.573 34.3264 94.9006 30 89.9364 30H39.0695H39.0702ZM79.983 72.4739C79.983 78.9335 75.1435 82.8511 67.1122 82.8511H53.4407C53.0496 82.8511 52.6745 82.6964 52.398 82.4211C52.1215 82.1458 51.9661 81.7723 51.9661 81.383V47.617C51.9661 47.2277 52.1215 46.8542 52.398 46.5789C52.6745 46.3036 53.0496 46.1489 53.4407 46.1489H67.0341C73.7308 46.1489 78.1258 49.7604 78.1258 55.3054C78.1258 59.1973 75.1693 62.6818 71.4025 63.2918V63.4951C76.5303 64.0552 79.983 67.5903 79.983 72.4739ZM65.6214 50.8028H57.8261V61.765H64.3916C69.4671 61.765 72.2659 59.7302 72.2659 56.093C72.2659 52.6849 69.8593 50.8028 65.6214 50.8028V50.8028ZM57.8261 66.1149V78.1958H65.9082C71.1924 78.1958 73.9918 76.0847 73.9918 72.1172C73.9918 68.1489 71.1142 66.1142 65.5683 66.1142H57.8261V66.1149Z" fill="white"/>
</svg>
