<svg xmlns="http://www.w3.org/2000/svg" xmlns:xlink="http://www.w3.org/1999/xlink" width="30" height="30" viewBox="0 0 30 30" fill="none"><defs><rect id="path_0" x="0" y="0" width="30" height="30" /><rect id="path_1" x="0" y="0" width="28" height="28" /></defs><g opacity="1" transform="translate(0 0)  rotate(0 15 15)"><mask id="bg-mask" fill="white"><use xlink:href="#path_0"></use></mask><g mask="url(#bg-mask)" ><path id="矩形 1" fill-rule="evenodd" style="fill:#CC001B" transform="translate(0 0)  rotate(0 15 15)" opacity="1" d="M0,30L30,30L30,0L0,0L0,30Z " /><g opacity="1" transform="translate(1 1)  rotate(0 14 14)"><mask id="bg-mask" fill="white"><use xlink:href="#path_1"></use></mask><g mask="url(#bg-mask)" ><path id="分组 1" fill-rule="evenodd" style="fill:#FFFFFF" transform="translate(2.333525646199393 11.66630003684151)  rotate(0 11.899856363797813 2.567144591739952)" opacity="1" d="M14.9431 5.08054C15.5731 5.03054 16.1631 4.85054 16.6931 4.48054C17.7431 3.75054 18.0631 2.15054 17.3631 1.12054C16.9631 0.530542 16.3531 0.290542 15.7031 0.150542C14.7431 -0.0594579 13.7731 -0.00945789 12.8031 0.0605421C12.6531 0.0705421 12.6231 0.140542 12.6031 0.280542C12.5231 1.17054 12.4231 2.07054 12.3431 2.96054C12.2731 3.64054 12.2031 4.32054 12.1331 5.03054C13.0831 5.14054 14.0131 5.17054 14.9431 5.08054Z M14.3333 4.09952C14.9433 4.05952 15.5133 3.89952 15.9533 3.40952C16.6433 2.62952 16.3133 1.37952 15.3133 1.13952C14.9033 1.03952 14.4633 1.06952 14.0333 1.03952C13.9133 1.02952 13.8833 1.09952 13.8733 1.21952C13.8333 1.64952 13.7833 2.07952 13.7433 2.51952C13.6933 3.01952 13.6433 3.52952 13.5933 4.09952C13.8633 4.09952 14.0933 4.10952 14.3333 4.09952Z M9.18647 5.06048C9.73647 4.99048 10.2665 4.85048 10.7365 4.54048C11.5165 4.04048 11.7465 2.98048 10.6065 2.48048C10.2165 2.31048 9.78647 2.20048 9.36647 2.07048C9.05647 1.97048 8.72647 1.91048 8.42647 1.81048C8.15647 1.71048 8.11647 1.47048 8.33647 1.30048C8.46647 1.21048 8.63647 1.11048 8.78647 1.10048C9.27647 1.07048 9.75647 1.06048 10.2465 1.08048C10.6665 1.10048 11.0865 1.18048 11.5165 1.23048L11.6665 0.210477C11.6065 0.190477 11.5665 0.180477 11.5365 0.170477C10.4965 -0.0195233 9.46647 -0.0595233 8.42647 0.0904767C7.84647 0.180477 7.30647 0.350477 6.85647 0.730477C6.22647 1.26048 6.25647 2.01048 6.97647 2.43048C7.32647 2.63048 7.73647 2.77048 8.13647 2.90048C8.52647 3.02048 8.92647 3.09048 9.31647 3.21048C9.66647 3.31048 9.69647 3.60048 9.41647 3.82048C9.32647 3.89048 9.21647 3.96048 9.09647 3.97048C8.79647 4.02048 8.47647 4.09048 8.17647 4.07048C7.51647 4.02048 6.85647 3.92048 6.18647 3.84048C6.15647 4.13048 6.10647 4.47048 6.06647 4.82048C6.17647 4.86048 6.27647 4.90048 6.37647 4.92048C7.30647 5.15048 8.24647 5.19048 9.18647 5.06048Z M20.0698 1.42C20.0798 1.24 20.1298 1.17 20.2998 1.17C20.6198 1.16 20.9298 1.11 21.2398 1.13C21.8898 1.15 22.3998 1.39 22.2898 2.31C22.2098 2.97 22.1398 3.64 22.0598 4.3C22.0398 4.58 22.0198 4.85 21.9898 5.13L23.4998 5.13C23.5998 4.17 23.7198 3.22 23.7898 2.26C23.8798 0.96 23.2998 0.26 22.0198 0.07C20.8998 -0.1 19.7998 0.06 18.6998 0.26L18.6998 0.26L18.1998 5.13L19.6798 5.13C19.8098 3.88 19.9498 2.65 20.0698 1.42Z M5.13 5.05093C5.22 5.05093 5.36 4.97093 5.37 4.91093C5.42 4.60093 5.44 4.28093 5.48 3.95093L5.48 3.94093C5.24 3.98093 5.03 4.02093 4.82 4.04093C4.12 4.10093 3.41 4.15093 2.73 3.92093C2.35 3.80093 2.06 3.58093 1.92 3.21093C1.7 2.65093 1.94 1.93093 2.46 1.56093C2.93 1.23093 3.49 1.13093 4.06 1.13093C4.67 1.13093 5.29 1.20093 5.92 1.23093L6.07 0.150934C5.65 0.110934 5.26 0.0509344 4.86 0.0209344C3.74 -0.0590656 2.66 0.0909344 1.65 0.580934C0.83 0.980934 0.23 1.56093 0.05 2.44093C-0.17 3.48093 0.36 4.34093 1.46 4.79093C1.99 5.00093 2.54 5.13093 3.1 5.13093C3.78 5.14093 4.46 5.09093 5.13 5.05093Z " /></g></g></g></g></svg>