<svg xmlns="http://www.w3.org/2000/svg" xmlns:xlink="http://www.w3.org/1999/xlink" width="30" height="30" viewBox="0 0 30 30" fill="none"><defs><rect id="path_0" x="0" y="0" width="30" height="30" /><rect id="path_1" x="0" y="0" width="24" height="24" /></defs><g opacity="1" transform="translate(0 0)  rotate(0 15 15)"><mask id="bg-mask" fill="white"><use xlink:href="#path_0"></use></mask><g mask="url(#bg-mask)" ><path id="矩形 1" fill-rule="evenodd" style="fill:#FFFFFF" transform="translate(0 0)  rotate(0 15 15)" opacity="1" d="M0,30L30,30L30,0L0,0L0,30Z " /><g opacity="1" transform="translate(3 3)  rotate(0 12 12)"><mask id="bg-mask" fill="white"><use xlink:href="#path_1"></use></mask><g mask="url(#bg-mask)" ><path id="路径 1" fill-rule="evenodd" style="fill:#FFFFFF" transform="translate(0 0)  rotate(0 12 12)" opacity="1" d="M0,24L24,24L24,0L0,0L0,24Z " /><path id="路径 2" fill-rule="evenodd" style="fill:#0F2B46" transform="translate(3 1.000500005859374)  rotate(0 8.86100000390625 10.10424999609375)" opacity="1" d="M17.72,14.5L17.72,5.71C17.72,5.25 17.49,4.82 17.1,4.59L9.49,0.17C9.09,-0.06 8.6,-0.06 8.24,0.17L0.63,4.59C0.23,4.82 0,5.25 0,5.71L0,14.53C0,15 0.23,15.42 0.63,15.65L8.24,20.03C8.63,20.27 9.12,20.27 9.49,20.03L17.1,15.62C17.49,15.39 17.72,14.96 17.72,14.5Z " /><path id="路径 3" fill-rule="evenodd" style="fill:#0F2B46" transform="translate(10.780999992187501 18.7879999921875)  rotate(0 2.2235000039062496 2.106)" opacity="1" d="M4.45,0L0,1.64L4.45,4.21L4.45,0Z " /><g opacity="1" transform="translate(8.558749998046876 6.55910151134645)  rotate(0 4.105124994140624 4.660898488653552)"><path id="路径 4" fill-rule="evenodd" style="fill:#FFFFFF" transform="translate(0.0002656686670707842 0)  rotate(0 1.313492159807089 1.3258984847473019)" opacity="1" d="M0.39,2.28C0.9,2.78 1.7,2.78 2.21,2.28C2.77,1.75 2.77,0.9 2.21,0.37C1.7,-0.12 0.9,-0.12 0.39,0.37C-0.13,0.9 -0.13,1.75 0.39,2.28Z " /><path id="路径 5" fill-rule="evenodd" style="fill:#FFFFFF" transform="translate(5.558372706699162 3.3340000078125005)  rotate(0 1.3259386407910427 1.3258984847473012)" opacity="1" d="M0,1.33C0,1.69 0.15,2.04 0.42,2.28C0.92,2.78 1.73,2.78 2.23,2.28C2.79,1.75 2.79,0.9 2.23,0.37C1.73,-0.12 0.92,-0.12 0.42,0.37C0.15,0.62 0,0.96 0,1.33Z " /><path id="路径 6" fill-rule="evenodd" style="fill:#FFFFFF" transform="translate(0 6.670000007812501)  rotate(0 1.3136249941406244 1.3258984847473019)" opacity="1" d="M0.4,2.28C0.9,2.78 1.7,2.78 2.21,2.28C2.77,1.75 2.77,0.9 2.21,0.37C1.7,-0.12 0.9,-0.12 0.4,0.37C-0.13,0.9 -0.13,1.79 0.4,2.28Z " /></g><path id="分组 2" fill-rule="evenodd" style="fill:#FFFFFF" transform="translate(10.780999992187498 8.7820000078125)  rotate(0 2.2070000039062494 2.8369999921875007)" opacity="1" d="M3.79 2.57L4.41 2.21L0.63 0L0 0.36L3.79 2.57Z M3.43 3.335L3.55271e-15 5.315L0.63 5.675L4.05 3.695L3.43 3.335Z " /></g></g></g></g></svg>