<svg width="128" height="128" viewBox="0 0 128 128" fill="none" xmlns="http://www.w3.org/2000/svg">
<rect width="128" height="128" fill="white"/>
<rect width="128" height="128" fill="white"/>
<path fill-rule="evenodd" clip-rule="evenodd" d="M78.6803 82.9068C80.4046 81.171 83.1959 81.1755 84.9147 82.917C86.6336 84.6584 86.6291 87.4773 84.9047 89.2131L77.2477 96.9211C70.1835 104.032 58.6641 104.136 51.4808 97.1606C51.4393 97.1205 48.2407 93.9587 37.6889 83.5277C30.669 76.5885 29.9697 65.4849 36.5756 58.3544L48.8922 45.0592C55.4484 37.9816 67.5339 37.208 75.03 43.3194L86.2164 52.4399C88.1108 53.9844 88.4067 56.7874 86.8773 58.7005C85.3479 60.6137 82.5724 60.9125 80.678 59.368L69.4916 50.2476C65.5713 47.0515 58.7136 47.4904 55.3307 51.1422L43.014 64.4377C39.7981 67.9089 40.1503 73.5011 43.8564 77.1646C51.6048 84.8243 57.5764 90.7272 57.5833 90.7339C61.3179 94.3601 67.3564 94.3061 71.0232 90.6148L78.6803 82.9068Z" fill="#FFA116"/>
<path fill-rule="evenodd" clip-rule="evenodd" d="M60.0793 75.1933C57.6446 75.1933 55.6708 73.2 55.6708 70.7412C55.6708 68.2824 57.6446 66.2892 60.0793 66.2892H92.5915C95.0263 66.2892 97 68.2824 97 70.7412C97 73.2 95.0263 75.1933 92.5915 75.1933H60.0793Z" fill="#B3B3B3"/>
<path fill-rule="evenodd" clip-rule="evenodd" d="M66.1681 26.4105C67.8315 24.615 70.6212 24.5212 72.3991 26.201C74.1771 27.8808 74.27 30.6981 72.6066 32.4937L43.0141 64.4378C39.7981 67.9088 40.1503 73.5009 43.8562 77.1645L57.5224 90.6746C59.2623 92.3946 59.2921 95.2133 57.5889 96.9704C55.8858 98.7275 53.0947 98.7576 51.3548 97.0376L37.6885 83.5275C30.6691 76.588 29.9697 65.4844 36.5759 58.3544L66.1681 26.4105Z" fill="black"/>
</svg>
