<svg xmlns="http://www.w3.org/2000/svg" xmlns:xlink="http://www.w3.org/1999/xlink" width="30" height="30" viewBox="0 0 30 30" fill="none"><defs><rect id="path_0" x="0" y="0" width="30" height="30" /><rect id="path_1" x="0" y="0" width="23.999999999999986" height="24" /></defs><g opacity="1" transform="translate(0 0)  rotate(0 15 15)"><mask id="bg-mask" fill="white"><use xlink:href="#path_0"></use></mask><g mask="url(#bg-mask)" ><path id="矩形 1" fill-rule="evenodd" style="fill:#02A7E0" transform="translate(0 0)  rotate(0 15 15)" opacity="1" d="M0,30L30,30L30,0L0,0L0,30Z " /><g opacity="1" transform="translate(3 3)  rotate(0 11.999999999999993 12)"><mask id="bg-mask" fill="white"><use xlink:href="#path_1"></use></mask><g mask="url(#bg-mask)" ><path id="路径 1" fill-rule="evenodd" style="fill:#FFFFFF" transform="translate(0 4.000000007789824)  rotate(0 12.003112844357966 7.9999999921988385)" opacity="1" d="M13.35,14.1L10.96,14.1C10.56,14.1 10.16,13.8 10.16,13.4L8.77,8.4C9.76,8.7 10.86,8.8 12.05,8.8C17.63,8.8 22.31,5.4 24.01,0.4C23.91,0.4 23.91,0.2 23.91,0.1C23.81,0 23.71,0 23.61,0C23.31,0.1 19.72,6.1 11.95,5.9C10.66,5.9 9.26,5.8 7.97,5.4L7.37,3.3C7.37,3.3 7.27,2.8 6.77,2.5C6.38,2.3 6.18,2.3 6.08,2.4L6.08,2.5L6.38,4.9C2.49,3.2 0.5,0.1 0.3,0C0.2,0 0.1,0 0,0.1L0,0.4C1.1,3.7 3.49,6.3 6.57,7.7L7.47,13.4C7.57,15 8.67,16 10.06,16L14.34,16C15.74,16 16.83,15 16.93,13.4L17.73,8.7L17.73,8.6C17.73,8.6 17.33,8.6 16.54,9.1C15.74,9.7 15.54,10.5 15.54,10.5C15.54,10.5 14.74,12.5 14.54,13.3C14.34,14.2 13.35,14.1 13.35,14.1Z " /></g></g></g></g></svg>