<svg xmlns="http://www.w3.org/2000/svg" xmlns:xlink="http://www.w3.org/1999/xlink" width="30" height="30" viewBox="0 0 30 30" fill="none"><defs><rect id="path_0" x="0" y="0" width="30" height="30" /><rect id="path_1" x="0" y="0" width="21" height="21" /></defs><g opacity="1" transform="translate(0 0)  rotate(0 15 15)"><mask id="bg-mask" fill="white"><use xlink:href="#path_0"></use></mask><g mask="url(#bg-mask)" ><path id="矩形 1" fill-rule="evenodd" style="fill:#FFFFFF" transform="translate(0 0)  rotate(0 15 15)" opacity="1" d="M0,30L30,30L30,0L0,0L0,30Z " /><g opacity="1" transform="translate(4.5 4.5)  rotate(0 10.5 10.5)"><mask id="bg-mask" fill="white"><use xlink:href="#path_1"></use></mask><g mask="url(#bg-mask)" ><path id="路径 1" fill-rule="evenodd" style="fill:#E6E6E6" transform="translate(9.521777343750001 3.9375)  rotate(0 5.7391318359375 8.445650390625001)" opacity="1" d="M2.06,16.89L10.13,16.89C10.87,16.89 11.48,16.29 11.48,15.54L11.48,1.35C11.48,0.6 10.87,0 10.13,0L1.25,0L0.33,3.57L0,5.92L1.78,10.88L2.06,16.89Z " /><path id="路径 2" fill-rule="evenodd" style="fill:#3A5BBC" transform="translate(10.33109765625 15.689337890624998)  rotate(0 2.3955996093750005 2.5697314453125)" opacity="1" d="M0.51,0L0,1.37L1.25,5.14L4.79,1.37L0.51,0Z " /><path id="路径 3" fill-rule="evenodd" style="fill:#808080" transform="translate(12.219375000000001 7.9605996093749996)  rotate(0 3.5200634765624996 4.1402197265625)" opacity="1" d="M0,1.2L0,2.05L4.75,2.05C4.49,2.61 4.03,3.5 3.4,4.43C2.82,3.71 2.45,3.21 2.45,3.2L2.2,2.85L1.51,3.36L1.76,3.7C1.78,3.73 2.2,4.32 2.88,5.15C2.42,5.72 1.57,6.63 1.13,7.08L1.73,7.68C2.12,7.3 2.91,6.44 3.43,5.82C4.11,6.63 4.77,7.35 5.4,7.98L5.7,8.28L6.3,7.68L6,7.37C5.35,6.72 4.67,5.97 3.97,5.13C4.87,3.82 5.46,2.58 5.7,2.05L7.04,2.05L7.04,1.2L3.79,1.2L3.79,0L2.93,0L2.93,1.2L0,1.2Z " /><path id="路径 4" fill-rule="evenodd" style="fill:#518EF8" transform="translate(0 0.17119921875000027)  rotate(0 7.561148437500001 8.445650390625001)" opacity="1" d="M10.78,3.77L9.53,0L1.35,0C0.6,0 0,0.6 0,1.35L0,15.54C0,16.29 0.6,16.89 1.35,16.89L15.12,16.89L14.33,14.49L12.65,9.42L10.78,3.77Z " /><path id="路径 5" fill-rule="evenodd" style="fill:#FFFFFF" transform="translate(2.942296874999999 5.424070312500001)  rotate(0 3.1813974609375 3.181376953125)" opacity="1" d="M0,3.18C0,4.94 1.43,6.36 3.18,6.36C4.94,6.36 6.36,4.94 6.36,3.18L6.36,2.75L3.18,2.75L3.18,3.61L5.47,3.61C5.27,4.69 4.32,5.51 3.18,5.51C1.9,5.51 0.86,4.46 0.86,3.18C0.86,1.9 1.9,0.86 3.18,0.86C3.8,0.86 4.39,1.1 4.83,1.54L5.43,0.93C4.83,0.33 4.03,0 3.18,0C1.43,0 0,1.43 0,3.18Z " /></g></g></g></g></svg>