<svg xmlns="http://www.w3.org/2000/svg" xmlns:xlink="http://www.w3.org/1999/xlink" width="32" height="32" viewBox="0 0 32 32" fill="none"><defs><rect id="path_0" x="0" y="0" width="24" height="24.03019437989169" /><linearGradient id="linear_0" x1="-6.265999999999999%" y1="0%" x2="50%" y2="100%" gradientUnits="objectBoundingBox"><stop offset="0" stop-color="#40CFFF" stop-opacity="1" /><stop offset="1" stop-color="#BD34FE" stop-opacity="1" /></linearGradient><linearGradient id="linear_1" x1="0%" y1="12.520999999999999%" x2="36.335%" y2="100%" gradientUnits="objectBoundingBox"><stop offset="0" stop-color="#FFE250" stop-opacity="1" /><stop offset="1" stop-color="#FFA800" stop-opacity="1" /></linearGradient></defs><g opacity="1" transform="translate(0 0)  rotate(0 16 16)"><path id="路径 1" fill-rule="evenodd" style="fill:#FFFFFF" transform="translate(0 0)  rotate(0 16 16)" opacity="1" d="M0,32L32,32L32,0L0,0L0,32Z " /><g opacity="1" transform="translate(4 3.984902810054109)  rotate(0 12 12.015097189945845)"><mask id="bg-mask-0" fill="white"><use xlink:href="#path_0"></use></mask><g mask="url(#bg-mask-0)" ><path id="路径 1" fill-rule="evenodd" fill="url(#linear_0)" transform="translate(0 2.6418056472554152)  rotate(0 12.000000000000002 10.694194366318131)" opacity="1" d="M23.28,0.01L12.23,2.03C12.15,2.04 12.08,2.04 12.01,2.03L0.72,0.01C0.21,-0.08 -0.18,0.47 0.08,0.92L11.58,21.08C11.82,21.49 12.41,21.49 12.65,21.07L23.92,0.91C24.17,0.46 23.79,-0.08 23.28,0.01Z " /><path id="路径 2" fill-rule="evenodd" fill="url(#linear_1)" transform="translate(8.280490493908141 0)  rotate(0 5.502537520671671 10.03123344921064)" opacity="1" d="M2.77,14.47L4.2,14.03C4.42,13.96 4.64,14.16 4.59,14.38L3.49,19.69C3.42,20.02 3.87,20.21 4.05,19.92L4.17,19.73L10.97,6.16C11.09,5.94 10.89,5.68 10.64,5.73L8.25,6.19C8.02,6.23 7.83,6.02 7.9,5.8L9.46,0.39C9.52,0.17 9.33,-0.04 9.1,0.01L0.76,1.64C0.62,1.67 0.52,1.78 0.51,1.92L0,10.59C-0.01,10.8 0.18,10.95 0.38,10.91L2.7,10.37C2.92,10.32 3.11,10.51 3.07,10.73L2.38,14.11C2.33,14.34 2.54,14.53 2.77,14.47Z " /></g></g></g></svg>