<svg xmlns="http://www.w3.org/2000/svg" xmlns:xlink="http://www.w3.org/1999/xlink" width="30" height="30" viewBox="0 0 30 30" fill="none"><defs><rect id="path_0" x="0" y="0" width="30" height="30" /><rect id="path_1" x="0" y="0" width="22" height="22" /></defs><g opacity="1" transform="translate(0 0)  rotate(0 15 15)"><mask id="bg-mask" fill="white"><use xlink:href="#path_0"></use></mask><g mask="url(#bg-mask)" ><path id="矩形 1" fill-rule="evenodd" style="fill:#FFFFFF" transform="translate(0 0)  rotate(0 15 15)" opacity="1" d="M0,30L30,30L30,0L0,0L0,30Z " /><g opacity="1" transform="translate(4 4)  rotate(0 11 11)"><mask id="bg-mask" fill="white"><use xlink:href="#path_1"></use></mask><g mask="url(#bg-mask)" ><path id="路径 1" fill-rule="evenodd" style="fill:#41B883" transform="translate(1.3642578125 2.6533203125)  rotate(0 9.6357421875 8.34560546875)" opacity="1" d="M15.42,0L9.64,10.02L3.85,0L0,0L9.64,16.69L19.27,0L11.86,0L15.42,0Z " /><path id="路径 2" fill-rule="evenodd" style="fill:#34495E" transform="translate(5.218554687499999 2.6554687499999994)  rotate(0 5.781445312500001 5.00693359375)" opacity="1" d="M8.01,0L5.78,3.85L3.56,0L0,0L5.78,10.01L11.56,0L8.01,0Z " /></g></g></g></g></svg>