<svg xmlns="http://www.w3.org/2000/svg" xmlns:xlink="http://www.w3.org/1999/xlink" width="30" height="30" viewBox="0 0 30 30" fill="none"><defs><rect id="path_0" x="0" y="0" width="30" height="30.000000000000007" /></defs><g opacity="1" transform="translate(0 0)  rotate(0 15 15.000000000000004)"><mask id="bg-mask" fill="white"><use xlink:href="#path_0"></use></mask><g mask="url(#bg-mask)" ><path id="矩形 1" fill-rule="evenodd" style="fill:#F1F1F1" transform="translate(0 0)  rotate(0 15 15)" opacity="1" d="M0,30L30,30L30,0L0,0L0,30Z " /><path id="分组 1" fill-rule="evenodd" style="fill:#CC3333" transform="translate(0 0)  rotate(0 15 15.000000000000004)" opacity="1" d="M0 30L30 30L30 0L0 0L0 15L0 30Z M13.202 10.0165L11.082 11.1965L10.052 10.6465C9.152 10.1865 9.052 10.0865 9.302 9.91653C10.202 9.29653 15.012 6.64653 15.132 6.69653C15.212 6.73653 16.862 7.64653 18.802 8.74653L22.332 10.7465L22.332 19.2465L18.802 21.2465C16.852 22.3465 15.182 23.2665 15.082 23.2865C15.002 23.3165 13.302 22.3965 11.332 21.2665L7.752 19.2165L7.702 17.3465L7.652 15.4965L5.002 15.4965L5.002 20.6465L10.012 23.4965L15.032 26.3665L15.732 25.9865C16.112 25.7665 18.362 24.4965 20.712 23.1665L24.982 20.7465L24.982 9.24653L20.132 6.49653C17.452 4.98653 15.182 3.73653 15.082 3.71653C14.952 3.68653 4.202 9.74653 3.932 10.0165C3.882 10.0665 5.252 10.9165 6.962 11.9165C8.682 12.9165 10.232 13.8365 10.412 13.9465C10.712 14.1365 10.912 14.0665 12.152 13.3165C12.912 12.8665 13.562 12.5165 13.602 12.5365C13.632 12.5665 13.502 13.1465 13.332 13.8365C12.912 15.4465 12.912 15.5865 13.432 16.4665L13.862 17.1965L14.402 16.6965C15.102 16.0365 15.532 15.8365 16.252 15.8365C17.062 15.8365 17.432 16.0465 17.652 16.6865C18.052 17.8665 16.812 18.8165 14.882 18.8365L13.832 18.8365L13.832 21.2165L15.132 21.1365C17.282 21.0165 19.082 19.9665 19.832 18.3965C21.032 15.9365 18.702 12.7665 16.202 13.4865C15.902 13.5665 15.662 13.6365 15.662 13.6165C15.662 13.5965 15.852 12.8865 16.062 12.0165L16.482 10.4465L16.032 9.64653C15.782 9.19653 15.512 8.83653 15.452 8.83653C15.362 8.83653 14.352 9.36653 13.202 10.0165Z " /></g></g></svg>