<svg xmlns="http://www.w3.org/2000/svg" xmlns:xlink="http://www.w3.org/1999/xlink" width="30" height="30" viewBox="0 0 30 30" fill="none"><defs><rect id="path_0" x="0" y="0" width="30" height="30" /><rect id="path_1" x="0" y="0" width="22" height="19.37059329320722" /></defs><g opacity="1" transform="translate(0 0)  rotate(0 15 15)"><mask id="bg-mask" fill="white"><use xlink:href="#path_0"></use></mask><g mask="url(#bg-mask)" ><path id="矩形 1" fill-rule="evenodd" style="fill:#171717" transform="translate(0 0)  rotate(0 15 15)" opacity="1" d="M0,30L30,30L30,0L0,0L0,30Z " /><g opacity="1" transform="translate(4 5.3147033533963395)  rotate(0 11 9.68529664660361)"><mask id="bg-mask" fill="white"><use xlink:href="#path_1"></use></mask><g mask="url(#bg-mask)" ><path id="分组 1" fill-rule="evenodd" style="fill:#13AFF0" transform="translate(0 0)  rotate(0 11.005177699054173 9.68529664660361)" opacity="1" d="M1.86 18.1436C2.23 18.8836 2.98 19.3736 3.84 19.3736L16.19 19.3736L13.62 14.9336L0 14.9336L1.86 18.1436Z M21.6581 13.75L14.4281 1.18C14.0381 0.47 13.3081 0 12.4581 0L8.63811 0L19.8081 19.35L21.5681 16.3C21.9181 15.72 22.0081 15.46 22.0081 14.96L22.0081 14.96C22.0081 14.53 21.8881 14.11 21.6581 13.75Z M6.80923 3.13566L1.81923 11.7857L11.7992 11.7857L6.80923 3.13566Z " /></g></g></g></g></svg>