<svg xmlns="http://www.w3.org/2000/svg" xmlns:xlink="http://www.w3.org/1999/xlink" width="32" height="32" viewBox="0 0 32 32" fill="none"><defs><rect id="path_0" x="0" y="0" width="19" height="19" /></defs><g opacity="1" transform="translate(0 0)  rotate(0 16 16)"><path id="路径 1" fill-rule="evenodd" style="fill:#FFFFFF" transform="translate(0 0)  rotate(0 16 16)" opacity="1" d="M0,32C10.67,32 21.33,32 32,32C32,21.33 32,10.67 32,0C21.33,0 10.67,0 0,0C0,10.67 0,21.33 0,32Z " /><g opacity="1" transform="translate(6.5 6.5)  rotate(0 9.5 9.5)"><mask id="bg-mask-0" fill="white"><use xlink:href="#path_0"></use></mask><g mask="url(#bg-mask-0)" ><path id="路径 1" fill-rule="evenodd" style="fill:#A15FDE" transform="translate(1.583352542691357 -2.5668038933841014e-8)  rotate(0 7.916652704728541 9.50000002563782)" opacity="1" d="M0.95,0C0.7,0 0.46,0.1 0.28,0.29C0.11,0.48 0,0.71 0,0.95L0,18.05C0,18.3 0.1,18.54 0.29,18.71C0.46,18.9 0.7,19 0.95,19L14.88,19C15.13,19 15.38,18.9 15.55,18.71C15.73,18.54 15.83,18.3 15.83,18.05L15.83,5.38L10.45,0L0.95,0Z " /><path id="路径 2" fill-rule="evenodd" style="fill:#C386F0" transform="translate(12.033333531249987 0.000004824218752030873)  rotate(0 2.6916622104492194 2.6916622104492185)" opacity="1" d="M0,0L0,4.43C0.01,4.95 0.43,5.37 0.95,5.38L5.38,5.38L0,0Z " /><path id="路径 3" fill-rule="evenodd" style="fill:#FFFFFF" transform="translate(4.479056122070318 6.178716901388874)  rotate(0 5.012554201823718 4.8740427485243165)" opacity="1" d="M2.98,7.47C2.64,7.32 2.27,7.24 1.9,7.25C0.85,7.25 0,7.81 0,8.5C0,9.19 0.82,9.75 1.9,9.75C2.98,9.75 3.79,9.19 3.79,8.5L3.79,2.95L9.21,1.67L9.21,6.04C8.88,5.89 8.52,5.81 8.16,5.82C7.11,5.82 6.3,6.38 6.3,7.07C6.3,7.76 7.1,8.32 8.16,8.32C9.21,8.32 10.02,7.76 10.02,7.07L10.02,0.84C10.03,0.58 9.92,0.34 9.72,0.18C9.52,0.02 9.26,-0.04 9.02,0.02L3.61,1.28C3.23,1.37 2.97,1.71 2.98,2.1L2.98,7.47Z " /></g></g></g></svg>