<?xml version="1.0" encoding="UTF-8"?>
<svg width="86px" height="86px" viewBox="0 0 86 86" version="1.1" xmlns="http://www.w3.org/2000/svg" xmlns:xlink="http://www.w3.org/1999/xlink">
    <!-- Generator: Sketch 55.2 (78181) - https://sketchapp.com -->
    <title>作 方</title>
    <desc>Created with Sketch.</desc>
    <g id="Page-1" stroke="none" stroke-width="1" fill="none" fill-rule="evenodd">
        <g id="大作-公众号" transform="translate(-29.000000, -415.000000)">
            <g id="作-方" transform="translate(29.000000, 415.000000)">
                <rect id="矩形" fill="#FF4D4D" x="0" y="0" width="86" height="86" rx="5.5483871"></rect>
                <path d="M42.1330091,39.7365873 C40.1004682,41.0930844 37.3695978,42.1916534 33.7524396,42.4314032 L33.7524396,31.7064602 L33.7524396,31.6954737 C36.2991146,31.5434348 36.5308564,30.6152534 37.069931,29.9305468 C39.0352997,27.4344866 38.7677143,21.1459601 38.5412959,19.394855 L50.3966784,19.394855 C50.4614148,20.3408316 50.4752871,22.3169001 50.1493045,24.7434693 L56.2932815,24.7434693 C59.3328957,24.2774294 61.128983,23.2078412 63.7902867,21.1009155 L68.0546188,28.7305029 C63.941114,32.1327715 61.5009054,33.2172447 59.4198432,33.477022 L57.7579035,33.7187249 L55.1243875,33.7187249 L55.1243875,38.1990165 L59.1527546,38.1990165 C61.5539256,37.8307918 63.1778923,37.0861911 65.0641211,35.7529271 L69.3543599,43.4271693 C66.1568207,45.862981 63.7804918,46.8581446 61.9773068,47.0838993 L60.6180865,47.174272 L55.1243875,47.174272 L55.1243875,51.6395015 L60.2063101,51.6395015 C62.6071262,51.2716312 64.2314478,50.5273849 66.1176765,49.1934121 L70.4079154,56.8687175 C67.2100213,59.303466 65.1456388,60.1923087 62.8825192,60.543522 L61.6716419,60.614757 L55.1243875,60.614757 L55.1243875,67.208708 L42.1330091,67.208708 L42.1330091,39.7365873 Z M19.4968443,41.5413654 C18.2167701,41.8847915 16.8215165,42.1227011 15.318679,42.2127011 L15.4574402,31.4675571 C18.0037603,31.3141006 19.0148357,30.386628 19.5539103,29.7019215 C21.4316217,27.316435 21.8028344,21.2490559 21.6906898,19.1669384 L33.012676,19.1669384 C33.1465588,21.3940347 32.9144733,29.3329326 28.719696,35.4159253 L32.487513,35.4159253 L32.487513,67.2476924 L19.4968443,67.2476924 L19.4968443,41.5413654 Z" id="形状结合" fill="#FFFFFF"></path>
            </g>
        </g>
    </g>
</svg>