<svg xmlns="http://www.w3.org/2000/svg" xmlns:xlink="http://www.w3.org/1999/xlink" width="30" height="30" viewBox="0 0 30 30" fill="none"><defs><rect id="path_0" x="0" y="0" width="30" height="30" /><rect id="path_1" x="0" y="0" width="16" height="15.999278034125105" /></defs><g opacity="1" transform="translate(0 0)  rotate(0 15 15)"><mask id="bg-mask" fill="white"><use xlink:href="#path_0"></use></mask><g mask="url(#bg-mask)" ><path id="矩形 1" fill-rule="evenodd" style="fill:#FFFFFF" transform="translate(0 0)  rotate(0 15 15)" opacity="1" d="M0,30L30,30L30,0L0,0L0,30Z " /><g opacity="1" transform="translate(7.000000000000002 7.000360982937423)  rotate(0 8 7.999639017062552)"><mask id="bg-mask" fill="white"><use xlink:href="#path_1"></use></mask><g mask="url(#bg-mask)" ><path id="分组 11" fill-rule="evenodd" style="fill:#E74C3C" transform="translate(0 0)  rotate(0 8 7.999639017062552)" opacity="1" d="M0 0L0 12.5L5.44 12.5L5.44 8.89L9.87 16L15.37 16L10.84 9.62C17.94 9.62 17.57 0 10.58 0L0 0Z M11.3298 5.11487C11.2798 3.86487 10.2498 2.88487 8.99975 2.88487L5.44975 2.88487L5.44975 7.35487L8.99975 7.35487C10.2498 7.35487 11.2798 6.36487 11.3298 5.11487Z " /></g></g></g></g></svg>