<svg xmlns="http://www.w3.org/2000/svg" xmlns:xlink="http://www.w3.org/1999/xlink" width="29.958249102439027" height="29.958249102439027" viewBox="0 0 29.958249102439027 29.958249102439027" fill="none"><defs><rect id="path_0" x="0" y="0" width="29.958249102439027" height="29.958249102439027" /><rect id="path_1" x="0" y="0" width="24" height="21.864768683274036" /></defs><g opacity="1" transform="translate(0 0)  rotate(0 14.979124551219513 14.979124551219513)"><mask id="bg-mask" fill="white"><use xlink:href="#path_0"></use></mask><g mask="url(#bg-mask)" ><path id="路径 1" fill-rule="evenodd" style="fill:#1373EB" transform="translate(0 0)  rotate(0 14.979124551219513 14.979124551219513)" opacity="1" d="M0,29.96L29.96,29.96L29.96,0L0,0L0,29.96Z " /><g opacity="1" transform="translate(2.9791245512194564 4.046740209582481)  rotate(0 12 10.932384341637018)"><mask id="bg-mask" fill="white"><use xlink:href="#path_1"></use></mask><g mask="url(#bg-mask)" ><path id="分组 1" fill-rule="evenodd" style="fill:#FFFFFF" transform="translate(3.9442345011079283 5.184683530249114)  rotate(0 8.914712724347858 5.764608072184458)" opacity="1" d="M0 8.34C0 9.16 0.13 9.98 0.38 10.76C2.76 11.39 5.21 11.63 7.66 11.49C11.63 11.29 15.19 10.19 17.82 8.55C17.82 8.48 17.83 8.41 17.83 8.34C17.83 3.73 13.84 0 8.92 0C3.99 0 0 3.73 0 8.34Z M7.78526 8.9346C8.32526 8.3946 8.62526 7.6646 8.62526 6.9046C8.62526 5.3146 7.34526 4.0246 5.75526 4.0246C4.16526 4.0246 2.87526 5.3146 2.87526 6.9046C2.87526 8.4846 4.16526 9.7746 5.75526 9.7746C6.51526 9.7746 7.24526 9.4746 7.78526 8.9346Z M12.3704 8.05454C12.9004 8.05454 13.4104 7.84454 13.7904 7.46454C14.1704 7.08454 14.3804 6.57454 14.3804 6.03454C14.3804 5.22454 13.8904 4.48454 13.1304 4.17454C12.3804 3.86454 11.5204 4.03454 10.9404 4.61454C10.3604 5.19454 10.1904 6.05454 10.5004 6.81454C10.8204 7.56454 11.5504 8.05454 12.3704 8.05454L12.3704 8.05454Z " /><path id="分组 2" fill-rule="evenodd" style="fill:#FFFFFF" transform="translate(0.0005440553672447111 1.4732915880871646e-7)  rotate(0 11.998553410553063 10.932384267972438)" opacity="1" d="M4.73968 16.9644C6.13968 19.8544 9.23968 21.8644 12.8597 21.8644C17.4197 21.8644 21.1897 18.6444 21.6997 14.5044C19.3197 16.5144 15.3497 17.8344 10.8397 17.8344C8.77968 17.8444 6.71968 17.5544 4.73968 16.9644Z M10.3157 0.85C10.1757 1.35 10.3957 1.88 10.8457 2.14L10.8457 3C9.86574 3.12 8.89574 3.36 7.96574 3.72C7.96574 3.82 7.97574 3.92 7.98574 4.03C8.00574 4.3 8.03574 4.57 8.06574 4.83C9.38574 4.33 11.0457 4.03 12.8657 4.03C13.5457 4.02 14.2257 4.07 14.9057 4.15C14.8957 3.93 14.8857 3.7 14.8557 3.46C14.8457 3.31 14.8257 3.16 14.8157 3.01C14.1657 2.92 13.5157 2.88 12.8557 2.88C12.5657 2.88 12.2857 2.89 11.9957 2.91L11.9957 2.14C12.4457 1.88 12.6657 1.35 12.5357 0.85C12.3957 0.35 11.9457 0 11.4257 0C10.9057 0 10.4457 0.35 10.3157 0.85Z M1.78 12.5286C2.02 12.6486 2.26 12.7686 2.51 12.8786C2.78 11.4986 3.4 9.9286 4.35 8.3886C4.71 7.8086 5.11 7.2486 5.54 6.7186C5.34 6.6086 5.13 6.4986 4.92 6.3886C4.78 6.3186 4.65 6.2586 4.51 6.1886C4.1 6.6986 3.72 7.2286 3.37 7.7786C3.22 8.0386 3.08 8.2786 2.94 8.5286L2.3 8.1286C2.31 7.6086 1.98 7.1386 1.48 6.9886C0.98 6.8386 0.45 7.0486 0.17 7.4886C-0.1 7.9286 -0.05 8.4986 0.31 8.8786C0.66 9.2586 1.23 9.3486 1.69 9.1086L2.42 9.5586C2 10.4586 1.7 11.4086 1.5 12.3786C1.6 12.4286 1.69 12.4786 1.78 12.5286Z M21.1775 8.51118C21.5375 9.09118 21.8675 9.69118 22.1475 10.3212C22.3475 10.1812 22.5375 10.0412 22.7275 9.90118C22.8575 9.81118 22.9675 9.72118 23.0875 9.62118C22.8175 9.03118 22.4975 8.45118 22.1575 7.90118C21.9975 7.65118 21.8375 7.42118 21.6775 7.18118L22.3175 6.78118C22.7675 7.02118 23.3375 6.93118 23.6875 6.55118C24.0475 6.16118 24.0975 5.59118 23.8175 5.15118C23.5475 4.71118 23.0075 4.51118 22.5075 4.67118C22.0175 4.82118 21.6875 5.29118 21.6975 5.80118L20.9675 6.26118C20.3475 5.49118 19.6275 4.80118 18.8375 4.20118C18.7575 4.26118 18.6675 4.32118 18.5875 4.38118C18.3675 4.55118 18.1575 4.71118 17.9475 4.88118C19.0775 5.73118 20.2175 6.98118 21.1775 8.51118Z " /></g></g></g></g></svg>