<svg width="100" height="100" viewBox="0 0 100 100" fill="none" xmlns="http://www.w3.org/2000/svg">
<rect width="100" height="100" fill="#2455F4"/>
<g clip-path="url(#clip0_13_110)">
<path fill-rule="evenodd" clip-rule="evenodd" d="M72.6762 47.9692V34.7692H49.1032V47.7154H38.0854V83H44.4911V54.3154H49.1032V75.8923H72.6762V54.3154H77.2883V83H83.694V47.9692H72.6762ZM54.9964 41.1154H66.2705V47.9692H54.9964V41.1154ZM54.9964 69.2923H66.2705V54.0615H54.9964V69.2923Z" fill="white"/>
<path d="M60.6335 17.7615H52.9466L55.5089 23.6H38.0854V19.7923L16.306 23.0923V28.9308L25.5302 27.6615V37.0538H16.306V42.8923H25.5302H24.2491L14 74.8769H19.8932L25.5302 57.6154V83H31.9359V42.8923H38.0854V37.0538H31.9359V26.6462L38.0854 25.6308V29.9462H83.694V23.6H63.1957L60.6335 17.7615Z" fill="white"/>
</g>
<defs>
<clipPath id="clip0_13_110">
<rect width="72" height="66" fill="white" transform="translate(14 17)"/>
</clipPath>
</defs>
</svg>
