<svg width="100" height="100" viewBox="0 0 100 100" fill="none" xmlns="http://www.w3.org/2000/svg">
<path d="M100 0H0V100H100V0Z" fill="url(#paint0_linear_956_3421)"/>
<path d="M36.6108 60.9767C36.6108 60.966 36.6074 60.9608 36.6074 60.9499C36.5038 57.0969 35.9163 49.1739 38.1484 42.4366C42.0428 30.6803 51.4079 27.777 51.4079 27.777C51.4079 27.777 46.1244 26.0771 39.232 25.6217C33.7609 25.2611 26.3918 26.4218 26.3918 26.4218C26.3918 26.4218 24.4812 46.7615 36.2054 60.5358C36.3217 60.6731 36.4627 60.8232 36.6108 60.9767Z" fill="#FCFCFC"/>
<path d="M37.9394 61.9371C37.9394 61.9371 55.8347 64.7193 66.4607 54.1449C77.0866 43.5709 74.219 26.4217 74.219 26.4217C74.219 26.4217 55.4168 23.9522 45.7694 33.5534C36.1218 43.1544 37.9394 61.9371 37.9394 61.9371ZM38.0277 62.4444C38.0423 62.4577 38.0555 62.4716 38.0698 62.4851C38.1193 62.491 38.1485 62.4925 38.1485 62.4925C37.7182 62.0624 37.1021 61.489 36.6094 60.9768" fill="#FCFCFC"/>
<path d="M39.6914 64.035H39.7306C39.6537 63.9689 39.5734 63.9102 39.4966 63.8438C38.9164 63.3459 38.6985 63.0457 38.1486 62.4923C38.1486 62.4923 38.1478 62.5178 38.1496 62.5618L39.6914 64.035ZM75.0425 60.1122C74.4999 54.4252 72.8944 48.6147 72.8944 48.6147C72.8944 48.6147 69.7179 56.9874 59.7487 60.9497C52.4936 63.8352 43.83 64.1387 39.7303 64.0352C53.4632 75.6701 74.2209 74.2488 74.2209 74.2488C74.2209 74.2488 75.6032 65.9887 75.0425 60.1122Z" fill="#FCFCFC"/>
<defs>
<linearGradient id="paint0_linear_956_3421" x1="0" y1="0" x2="94.4" y2="102.25" gradientUnits="userSpaceOnUse">
<stop stop-color="#E30D2F"/>
<stop offset="1" stop-color="#F34C3F"/>
</linearGradient>
</defs>
</svg>
