<svg xmlns="http://www.w3.org/2000/svg" xmlns:xlink="http://www.w3.org/1999/xlink" width="30" height="30" viewBox="0 0 30 30" fill="none"><defs><rect id="path_0" x="0" y="0" width="30" height="30.000000000000004" /><rect id="path_1" x="0" y="0" width="22" height="22" /></defs><g opacity="1" transform="translate(0 0)  rotate(0 15 15.000000000000002)"><mask id="bg-mask" fill="white"><use xlink:href="#path_0"></use></mask><g mask="url(#bg-mask)" ><path id="矩形 1" fill-rule="evenodd" style="fill:#FFF5C8" transform="translate(0 0)  rotate(0 15 15)" opacity="1" d="M0,30L30,30L30,0L0,0L0,30Z " /><g opacity="1" transform="translate(4.000000000000028 3.999999999999975)  rotate(0 11 11)"><mask id="bg-mask" fill="white"><use xlink:href="#path_1"></use></mask><g mask="url(#bg-mask)" ><path id="分组 1" fill-rule="evenodd" style="fill:#F4A324" transform="translate(3.5087851562499996 0.0000015702754414537168)  rotate(0 7.111242187499999 10.999997276434666)" opacity="1" d="M2.03 5.14689C0.92 5.13689 0.01 6.02689 0 7.13689L0 14.6469C0 18.6969 3.36 21.9969 7.49 21.9969C9.46 22.0069 11.35 21.2469 12.76 19.8669C13.37 19.2869 13.85 18.4869 14.22 17.7269C13.16 19.1869 11.48 20.1569 9.68 20.1569C6.58 20.1569 4.06 17.6869 4.06 14.6469L4.06 7.13689C4.05 6.60689 3.84 6.09689 3.46 5.72689C3.07 5.34689 2.56 5.13689 2.03 5.14689Z M4.05 1.99C4.04 0.88 3.14 -0.01 2.03 0C0.92 -0.01 0.01 0.88 0 1.99C0.01 3.1 0.92 3.99 2.03 3.99L2.03 3.99C3.14 3.99 4.04 3.1 4.05 1.99Z " /><path id="路径 3" fill-rule="evenodd" style="fill:#FC8E0B" transform="translate(8.106076171875 7.672267637044855)  rotate(0 5.1925371093749995 6.282389341457832)" opacity="1" d="M2.9,10.72C1.82,10.72 0.25,10.06 0,9.3C0.66,11.27 3,12.57 5.08,12.56C6.47,12.57 7.81,12.03 8.8,11.06C9.8,10.11 10.36,8.81 10.39,7.43L10.39,7.27C10.37,5.33 9.57,3.47 8.16,2.13L8.16,2.13C6.75,0.76 4.86,-0.01 2.89,0C1.79,-0.01 0.88,0.88 0.87,1.99C0.87,2.51 1.07,3 1.43,3.37C1.81,3.77 2.34,3.99 2.9,3.99C4.79,3.99 6.33,5.5 6.33,7.35C6.33,9.21 4.79,10.72 2.9,10.72Z " /></g></g></g></g></svg>