<svg xmlns="http://www.w3.org/2000/svg" xmlns:xlink="http://www.w3.org/1999/xlink" width="30" height="30" viewBox="0 0 30 30" fill="none"><defs><rect id="path_0" x="0" y="0" width="30" height="30" /><rect id="path_1" x="0" y="0" width="14" height="16.25000000196184" /></defs><g opacity="1" transform="translate(0 0)  rotate(0 15 15)"><mask id="bg-mask" fill="white"><use xlink:href="#path_0"></use></mask><g mask="url(#bg-mask)" ><path id="路径 1" fill-rule="evenodd" style="fill:#07A081" transform="translate(0 0)  rotate(0 15 15)" opacity="1" d="M0,30L30,30L30,0L0,0L0,30Z " /><g opacity="1" transform="translate(7.999999999999972 6.874999999019135)  rotate(0 7 8.12500000098092)"><mask id="bg-mask" fill="white"><use xlink:href="#path_1"></use></mask><g mask="url(#bg-mask)" ><path id="分组 1" fill-rule="evenodd" style="fill:#FFFFFF" transform="translate(0 0)  rotate(0 7.000000000000001 8.12500000098092)" opacity="1" d="M0 0L0 16.25L8.75 16.25L8.75 11.91C11.73 11.41 14 8.95 14 6C14 3.05 11.73 0.6 8.75 0.09L0 0Z M11.5 6C11.5 4.32 10.37 2.84 8.75 2.39L2.25 2.25L2.25 14L6.75 14L6.75 9.75L8.75 9.75C10.33 9.31 11.5 7.73 11.5 6Z " /></g></g></g></g></svg>