<?xml version="1.0" standalone="no"?><!DOCTYPE svg PUBLIC "-//W3C//DTD SVG 1.1//EN" "http://www.w3.org/Graphics/SVG/1.1/DTD/svg11.dtd"><svg t="1642402093644" class="icon" viewBox="0 0 1024 1024" version="1.1" xmlns="http://www.w3.org/2000/svg" p-id="3429" xmlns:xlink="http://www.w3.org/1999/xlink" width="200" height="200"><defs><style type="text/css"></style></defs><path d="M0 0h1024v1024H0z" fill="#0A9B4B" p-id="3430"></path><path d="M363.163 285.767c-71.442 0-184.558 65.489-184.558 166.698v351.256h71.442V660.837h154.79s148.837-41.674 148.837-190.511-119.07-184.559-190.511-184.559zM476.279 476.28c-5.953 89.302-89.302 107.163-89.302 107.163h-136.93v-136.93s11.906-77.396 101.209-89.303c48.64-6.489 130.977 29.768 125.023 119.07z" fill="#FFFFFF" p-id="3431"></path><path d="M512 285.767h89.302l83.35 119.07 89.301-119.07h95.256L744.186 458.42l136.93 196.465h-89.302l-95.256-130.977-107.163 130.977H494.14l136.93-184.558L512 285.767z" fill="#FFFFFF" p-id="3432"></path></svg>