<svg xmlns="http://www.w3.org/2000/svg" xmlns:xlink="http://www.w3.org/1999/xlink" width="30" height="30" viewBox="0 0 30 30" fill="none"><defs><rect id="path_0" x="0" y="0" width="30" height="30" /><rect id="path_1" x="0" y="0" width="22" height="5.79910461348973" /><filter id="filter_6" x="3.9389140378906937" y="-3.9997689666271246" width="13.823529402819478" height="13.798642528334005" filterUnits="userSpaceOnUse" color-interpolation-filters="sRGB"><feFlood flood-opacity="0" result="BackgroundImageFix"/>
          <feColorMatrix in="SourceAlpha" type="matrix" values="0 0 0 0 0 0 0 0 0 0 0 0 0 0 0 0 0 0 127 0"/>
          <feOffset dx="0" dy="2"/>
          <feGaussianBlur stdDeviation="2"/>
          <feColorMatrix type="matrix" values="0 0 0 0 0 0 0 0 0 0 0 0 0 0 0 0 0 0 0.5 0"/>
          <feBlend mode="normal" in2="BackgroundImageFix" result="effect1_Shadow"/>
          <feBlend mode="normal" in="SourceGraphic" in2="effect1_Shadow" result="shape"/></filter><filter id="filter_8" x="-4" y="-4" width="13.79864254682694" height="13.79910461348973" filterUnits="userSpaceOnUse" color-interpolation-filters="sRGB"><feFlood flood-opacity="0" result="BackgroundImageFix"/>
          <feColorMatrix in="SourceAlpha" type="matrix" values="0 0 0 0 0 0 0 0 0 0 0 0 0 0 0 0 0 0 127 0"/>
          <feOffset dx="0" dy="2"/>
          <feGaussianBlur stdDeviation="2"/>
          <feColorMatrix type="matrix" values="0 0 0 0 0 0 0 0 0 0 0 0 0 0 0 0 0 0 0.5 0"/>
          <feBlend mode="normal" in2="BackgroundImageFix" result="effect1_Shadow"/>
          <feBlend mode="normal" in="SourceGraphic" in2="effect1_Shadow" result="shape"/></filter><filter id="filter_10" x="12.201357471665997" y="-3.9997689666271246" width="13.798642528334003" height="13.798642528334005" filterUnits="userSpaceOnUse" color-interpolation-filters="sRGB"><feFlood flood-opacity="0" result="BackgroundImageFix"/>
          <feColorMatrix in="SourceAlpha" type="matrix" values="0 0 0 0 0 0 0 0 0 0 0 0 0 0 0 0 0 0 127 0"/>
          <feOffset dx="0" dy="2"/>
          <feGaussianBlur stdDeviation="2"/>
          <feColorMatrix type="matrix" values="0 0 0 0 0 0 0 0 0 0 0 0 0 0 0 0 0 0 0.5 0"/>
          <feBlend mode="normal" in2="BackgroundImageFix" result="effect1_Shadow"/>
          <feBlend mode="normal" in="SourceGraphic" in2="effect1_Shadow" result="shape"/></filter></defs><g opacity="1" transform="translate(0 0)  rotate(0 15 15)"><mask id="bg-mask" fill="white"><use xlink:href="#path_0"></use></mask><g mask="url(#bg-mask)" ><path id="矩形 1" fill-rule="evenodd" style="fill:#171717" transform="translate(0 0)  rotate(0 15 15)" opacity="1" d="M0,30L30,30L30,0L0,0L0,30Z " /><g opacity="1" transform="translate(3.9999999999999716 11.309660700506553)  rotate(0 11 2.899552306744865)"><mask id="bg-mask" fill="white"><use xlink:href="#path_1"></use></mask><g mask="url(#bg-mask)" ><g id="路径 1" filter="url(#filter_6)"><path id="路径 1" fill-rule="evenodd" style="fill:#FFFFFF" transform="translate(7.938914037890694 0.00023103337287544434)  rotate(0 2.9117647014097394 2.899321264167003)" opacity="1" d="M1.06,0L0,1.07L1.85,2.9L0,4.74L1.06,5.8L2.91,3.96L4.78,5.8L5.82,4.74L3.97,2.9L5.82,1.07L4.78,0L2.91,1.85L1.06,0Z " /></g><g id="路径 2" filter="url(#filter_8)"><path id="路径 2" fill-rule="evenodd" style="fill:#FFFFFF" transform="translate(0 0)  rotate(0 2.8993212734134706 2.899552306744865)" opacity="1" d="M1.45,5.41C2.35,5.93 3.45,5.93 4.35,5.41C5.25,4.89 5.8,3.94 5.8,2.9C5.8,1.86 5.25,0.91 4.35,0.39C3.45,-0.13 2.35,-0.13 1.45,0.39C0.55,0.91 0,1.86 0,2.9C0,3.94 0.55,4.89 1.45,5.41Z " /></g><g id="路径 3" filter="url(#filter_10)"><path id="路径 3" fill-rule="evenodd" style="fill:#FFFFFF" transform="translate(16.201357471665997 0.00023103337287544434)  rotate(0 2.8993212641670025 2.899321264167003)" opacity="1" d="M0,5.8L5.8,5.8L5.8,0L0,0L0,5.8Z " /></g></g></g></g></g></svg>