<svg xmlns="http://www.w3.org/2000/svg" xmlns:xlink="http://www.w3.org/1999/xlink" width="30" height="30" viewBox="0 0 30 30" fill="none"><defs><rect id="path_0" x="0" y="0" width="30" height="30" /></defs><g opacity="1" transform="translate(0 0)  rotate(0 15 15)"><mask id="bg-mask" fill="white"><use xlink:href="#path_0"></use></mask><g mask="url(#bg-mask)" ><path id="路径 1" fill-rule="evenodd" style="fill:#FFFFFF" transform="translate(0 0.027116751219510654)  rotate(0 14.979124551219513 14.979124551219513)" opacity="1" d="M0,29.96L29.96,29.96L29.96,0L0,0L0,29.96Z " /><path id="路径 2" fill-rule="evenodd" style="fill:#3281FA" transform="translate(0.049930419512195554 0.014634146341463428)  rotate(0 14.979124551219513 14.979124551219513)" opacity="1" d="M0,29.96L29.96,29.96L29.96,0L0,0L0,29.96Z " /><path id="分组 1" fill-rule="evenodd" style="fill:#FFFFFF" transform="translate(5.951705502439025 8.816467580487803)  rotate(0 9.077374434146343 6.183323627929689)" opacity="1" d="M0 1.46005L0 6.18005C0 9.60005 2.69 12.37 6.02 12.37C9.34 12.37 12.03 9.60005 12.03 6.18005L12.03 6.18005L12.03 1.46005C12.03 0.66005 11.39 4.99805e-05 10.61 4.99805e-05C9.82 4.99805e-05 9.18 0.66005 9.18 1.46005L9.18 6.18005C9.18 7.98005 7.77 9.44005 6.02 9.44005C4.27 9.44005 2.85 7.98005 2.85 6.18005L2.85 1.46005C2.85 0.66005 2.21 4.99805e-05 1.42 4.99805e-05C0.64 4.99805e-05 0 0.66005 0 1.46005Z M15.3055 1.46L15.3055 10.9C15.3055 11.71 15.9455 12.37 16.7255 12.37C17.5155 12.37 18.1555 11.71 18.1555 10.9L18.1555 1.46C18.1555 0.66 17.5155 0 16.7255 0C15.9455 0 15.3055 0.66 15.3055 1.46Z " /></g></g></svg>