<svg xmlns="http://www.w3.org/2000/svg" xmlns:xlink="http://www.w3.org/1999/xlink" width="30" height="30" viewBox="0 0 30 30" fill="none"><defs><rect id="path_0" x="0" y="0" width="30" height="30" /></defs><g opacity="1" transform="translate(0 0)  rotate(0 15 15)"><mask id="bg-mask" fill="white"><use xlink:href="#path_0"></use></mask><g mask="url(#bg-mask)" ><path id="矩形 1" fill-rule="evenodd" style="fill:#FFFFFF" transform="translate(0 0)  rotate(0 15 15)" opacity="1" d="M0,30L30,30L30,0L0,0L0,30Z " /><g opacity="1" transform="translate(4 4.031743757719369)  rotate(0 11 10.968256242280644)"><path id="Combined-Shape" fill-rule="evenodd" style="fill:#F570B4" transform="translate(0 0)  rotate(0 11 10.968256242280644)" opacity="1" d="M5.95 20.69C10.96 23.58 17.7 21.19 20.59 16.18C23.49 11.17 21.77 4.76 16.76 1.87C11.75 -1.03 4.1 -0.79 1.2 4.23C-1.69 9.24 0.94 17.79 5.95 20.69Z M12.6426 7.50451C12.5226 7.37451 12.3526 7.31451 12.1526 7.31451C11.9426 7.31451 11.7826 7.37451 11.6626 7.50451C11.5626 7.60451 11.5026 7.74451 11.4826 7.91451L11.4826 7.99451L11.4826 11.9145C11.4826 12.5545 11.3326 13.0345 11.0226 13.3745C10.7226 13.7045 10.2726 13.8745 9.69263 13.8745C9.10263 13.8745 8.65263 13.7045 8.35263 13.3745C8.07263 13.0745 7.92263 12.6345 7.89263 12.0545L7.89263 11.9145L7.89263 7.99451C7.89263 7.79451 7.83263 7.62451 7.71263 7.50451C7.59263 7.37451 7.43263 7.31451 7.22263 7.31451C7.01263 7.31451 6.85263 7.37451 6.73263 7.50451C6.63263 7.60451 6.57263 7.74451 6.55263 7.91451L6.55263 7.99451L6.55263 11.8345C6.55263 12.8645 6.82263 13.6345 7.35263 14.1645C7.88263 14.7045 8.66263 14.9645 9.69263 14.9645C10.7126 14.9645 11.4926 14.7045 12.0226 14.1645C12.5226 13.6645 12.7926 12.9445 12.8226 12.0145L12.8226 11.8345L12.8226 7.99451C12.8226 7.79451 12.7626 7.62451 12.6426 7.50451Z M14.3974 7.91451L14.3974 7.99451L14.3974 14.2445C14.3974 14.4545 14.4574 14.6145 14.5874 14.7445C14.7074 14.8745 14.8774 14.9345 15.0774 14.9345C15.2874 14.9345 15.4574 14.8745 15.5874 14.7445C15.6874 14.6345 15.7474 14.4945 15.7674 14.3345L15.7674 14.2445L15.7674 7.99451C15.7674 7.79451 15.7074 7.62451 15.5874 7.50451C15.4574 7.37451 15.2874 7.31451 15.0774 7.31451C14.8774 7.31451 14.7074 7.37451 14.5874 7.50451C14.4774 7.60451 14.4174 7.74451 14.3974 7.91451Z " /></g></g></g></svg>