<svg width="100" height="100" viewBox="0 0 100 100" fill="none" xmlns="http://www.w3.org/2000/svg">
<path d="M100 0H0V100H100V0Z" fill="#EE340C"/>
<path d="M81.5503 59.2094C80.299 59.0601 79.0749 58.7358 77.9138 58.2461C81.6356 54.3088 82.6992 49.3621 82.6992 47.9287H65.0695V51.7784H76.3237C74.7647 55.7698 70.4563 58.6931 65.9878 59.2094C65.8311 59.222 65.6767 59.2278 65.5246 59.2278C64.695 59.2278 63.8873 59.0699 63.333 58.8959L64.7757 63.4785C68.4525 63.4785 71.4081 62.6673 73.7772 61.4044C76.1405 62.6627 79.0926 63.4785 82.7625 63.4785L84.2063 58.8959C83.4958 59.1123 82.7575 59.2241 82.0147 59.2278C81.8615 59.2278 81.7082 59.222 81.5503 59.2094Z" fill="white"/>
<path d="M53.3773 38.3013H62.0354V34.561H53.3773V38.3013ZM81.7461 42.4034V34.5449H65.9382V38.3819C65.9382 39.8315 65.3517 42.068 63.008 42.7663L66.6376 46.6034C70.5495 43.483 70.886 40.3926 70.9356 39.3383L70.9528 38.2921H76.7764V43.5003C76.7764 44.2239 77.0587 44.9038 77.5715 45.4177C77.8219 45.6712 78.1204 45.8722 78.4494 46.0091C78.7784 46.146 79.1313 46.216 79.4877 46.2151H84.4609V41.5484C83.251 42.4218 81.7461 42.4034 81.7461 42.4034ZM62.0354 57.2319L60.2517 57.702V45.5767H62.0354V41.364H53.3773V45.5767H55.1576V59.0421L53.3773 59.5122V63.6869L62.0354 61.4031V57.2319ZM48.9883 34.561H43.7455V38.7438H38.3229L39.0823 34.561H33.3048L32.5478 38.7438H27.8661V42.9587H31.7792L28.0194 63.688H33.813L37.5636 42.9587H48.9883V34.561ZM18.1813 39.8154C17.1477 40.5482 16.2006 40.8593 15.5 40.9884L18.9268 45.6816C19.2472 45.5295 19.579 45.3543 19.9431 45.1492L20.7474 44.6964V63.688H25.8531V42.302H23.6027L24.2976 41.4262C26.6332 38.481 27.2646 35.5554 27.4202 34.5449H21.7683C21.5183 35.5324 20.7082 37.6745 18.1802 39.8154" fill="white"/>
<path d="M45.4517 45.7266H40.0176V60.9745C40.0176 61.6993 40.3056 62.3826 40.8161 62.8954C41.0661 63.1482 41.3641 63.3485 41.6925 63.4846C42.021 63.6208 42.3733 63.6899 42.7289 63.6881H49.064V58.4338C48.4476 59.0791 47.134 59.5296 46.4657 59.5296H45.4517V45.7266Z" fill="white"/>
</svg>
