<svg width="100" height="100" viewBox="0 0 100 100" fill="none" xmlns="http://www.w3.org/2000/svg">
<path d="M100 0H0V100H100V0Z" fill="#F5CA1E"/>
<path d="M10.0244 9.4502H91.3871V90.8129H10.0244V9.4502Z" fill="#F5CA1E"/>
<path d="M79.1914 47.5751C77.4153 48.5591 74.8776 49.0484 72.758 49.2907C76.1188 46.4336 79.3822 43.1794 80.7017 39.0853C82.4915 33.5311 82.5453 28.3817 80.8712 22.8829C80.719 22.3957 80.302 22.0364 79.7929 21.9699C79.3251 21.8876 78.8354 22.1058 78.5475 22.5132C74.1072 28.8368 68.2361 32.8707 61.819 34.0626C63.7365 30.2039 65.8515 25.8483 65.3961 21.2951C65.3428 20.7738 64.9881 20.3469 64.5112 20.1886C64.3992 20.1482 64.2508 20.1216 64.0956 20.1216C63.7302 20.1216 63.4001 20.2711 63.1621 20.5124C56.3587 27.4401 50.9289 28.9022 44.3712 29.0157C37.1301 29.1398 30.2154 32.4785 25.4016 38.1758C20.6273 43.8243 18.5142 51.1095 19.6041 58.1648C21.3539 69.5168 29.8259 78.0128 41.1866 79.8077C42.6205 80.0338 44.0415 80.1444 45.4404 80.1444C54.7712 80.1444 63.1446 75.2098 67.9292 66.6368C68.475 65.6614 69.3707 64.7047 70.3856 64.0079C75.0048 60.8478 78.3467 56.757 80.3133 51.8462C80.5858 51.1673 80.7847 50.3311 80.9608 49.5932L81.0955 49.0369C81.1209 48.941 81.1355 48.8307 81.1355 48.717C81.1355 48.2969 80.9368 47.9234 80.6277 47.6846C80.4061 47.514 80.1276 47.4124 79.8262 47.4124C79.5938 47.4124 79.3751 47.4727 79.1851 47.5782L79.1914 47.5751ZM22.2864 56.2342C23.3824 59.6815 30.1225 60.8358 30.1225 60.8358C24.4973 66.8807 22.2864 56.2342 22.2864 56.2342ZM38.5608 60.8359C38.5608 60.8359 52.3146 59.2458 57.7945 54.5075C57.7945 54.5075 49.8129 72.7072 38.5608 60.8359Z" fill="#040000"/>
</svg>
