<svg xmlns="http://www.w3.org/2000/svg" xmlns:xlink="http://www.w3.org/1999/xlink" width="29.958249102439027" height="29.958249102439027" viewBox="0 0 29.958249102439027 29.958249102439027" fill="none"><defs><rect id="path_0" x="0" y="0" width="29.958249102439027" height="29.958249102439027" /><rect id="path_1" x="0" y="0" width="24" height="8.99560761346997" /></defs><g opacity="1" transform="translate(0 0)  rotate(0 14.979124551219513 14.979124551219513)"><mask id="bg-mask" fill="white"><use xlink:href="#path_0"></use></mask><g mask="url(#bg-mask)" ><path id="路径 1" fill-rule="evenodd" style="fill:#0087FA" transform="translate(0 0)  rotate(0 14.979124551219513 14.979124551219513)" opacity="1" d="M0,29.96L29.96,29.96L29.96,0L0,0L0,29.96Z " /><g opacity="1" transform="translate(2.97912455121957 10.481320744484549)  rotate(0 12 4.497803806734985)"><mask id="bg-mask" fill="white"><use xlink:href="#path_1"></use></mask><g mask="url(#bg-mask)" ><path id="分组 1" fill-rule="evenodd" style="fill:#FFFFFF" transform="translate(1.2911342723279635 1.1323882489019008)  rotate(0 10.710064594436309 3.370707087847726)" opacity="1" d="M20.16 2.81233C20.13 2.81233 20.1 2.78233 20.1 2.75233L20.1 0.102332C20.1 0.0723323 20.07 0.0423323 20.03 0.0423323L19.54 0.0423323C19.5 0.0423323 19.47 0.0723323 19.47 0.102332L19.47 2.75233C19.47 2.78233 19.44 2.81233 19.41 2.81233L18.21 2.81233C18.18 2.81233 18.15 2.84233 18.15 2.88233L18.15 3.37233C18.15 3.41233 18.18 3.44233 18.21 3.44233L19.41 3.44233C19.44 3.44233 19.47 3.47233 19.47 3.50233L19.47 6.68233C19.47 6.71233 19.5 6.74233 19.54 6.74233L20.03 6.74233C20.07 6.74233 20.1 6.71233 20.1 6.68233L20.1 3.50233C20.1 3.47233 20.13 3.44233 20.16 3.44233L21.36 3.44233C21.39 3.44233 21.42 3.41233 21.42 3.37233L21.42 2.88233C21.42 2.84233 21.39 2.81233 21.36 2.81233L20.16 2.81233Z M15.0747 3.4251L17.0147 3.4251C17.0447 3.4251 17.0847 3.4651 17.0847 3.4951L17.0847 5.9751C17.0847 6.0151 17.0447 6.0451 17.0147 6.0451L15.6947 6.0451C15.6647 6.0451 15.6347 6.0151 15.6347 5.9751L15.6347 4.6951C15.6347 4.6651 15.6647 4.6351 15.6947 4.6351L16.5647 4.6351C16.5947 4.6351 16.6247 4.6051 16.6247 4.5751L16.6247 4.0751C16.6247 4.0451 16.5947 4.0151 16.5647 4.0151L15.0847 4.0151C15.0447 4.0151 15.0147 4.0451 15.0147 4.0751L15.0147 6.5951C15.0147 6.6251 15.0447 6.6551 15.0847 6.6551L17.6447 6.6551C17.6747 6.6551 17.7047 6.6251 17.7047 6.5951L17.7047 2.8751C17.7047 2.8451 17.6747 2.8151 17.6447 2.8151L15.0847 2.8151C15.0447 2.8151 15.0147 2.8451 15.0147 2.8751L15.0147 3.3751C15.0047 3.4051 15.0247 3.4251 15.0747 3.4251Z M17.6268 2.28154C17.6668 2.28154 17.6968 2.25154 17.6968 2.22154L17.6968 1.72154C17.6968 1.69154 17.6668 1.66154 17.6268 1.66154L15.0668 1.66154C15.0368 1.66154 15.0068 1.69154 15.0068 1.72154L15.0068 2.22154C15.0068 2.25154 15.0268 2.28154 15.0668 2.28154L17.6268 2.28154Z M16.595 0.0105831L16.095 0.0105831C16.065 0.0105831 16.035 0.0405831 16.035 0.0705831L16.035 0.430583C16.035 0.470583 16.005 0.500583 15.965 0.500583L15.035 0.500583C15.005 0.500583 14.975 0.530583 14.975 0.560583L14.975 1.06058C14.975 1.09058 15.005 1.12058 15.035 1.12058L17.645 1.12058C17.675 1.12058 17.705 1.09058 17.705 1.06058L17.705 0.560583C17.705 0.530583 17.675 0.500583 17.645 0.500583L16.715 0.500583C16.675 0.500583 16.645 0.470583 16.645 0.430583L16.645 0.0705831C16.655 0.0305831 16.625 0.0105831 16.595 0.0105831Z M2.66058 0.75758L3.10058 0.75758C3.13058 0.75758 3.16058 0.72758 3.16058 0.69758L3.16058 0.19758C3.16058 0.16758 3.13058 0.13758 3.10058 0.13758L0.0805831 0.13758C0.0505831 0.13758 0.0205831 0.16758 0.0205831 0.19758L0.0205831 0.69758C0.0205831 0.72758 0.0505831 0.75758 0.0805831 0.75758L1.70058 0.75758C1.76058 0.75758 1.79058 0.82758 1.76058 0.86758L0.0205831 2.93758C0.0105831 2.95758 0.0105831 2.96758 0.0105831 2.98758L0.0105831 3.43758C0.0105831 3.46758 0.0405831 3.50758 0.0705831 3.50758L2.99058 3.50758C3.03058 3.50758 3.06058 3.46758 3.06058 3.43758L3.06058 2.11758C3.06058 2.08758 3.03058 2.05758 2.99058 2.05758L2.50058 2.05758C2.47058 2.05758 2.43058 2.08758 2.43058 2.11758L2.43058 2.81758C2.43058 2.84758 2.40058 2.87758 2.37058 2.87758L1.00058 2.87758C0.950583 2.87758 0.920583 2.81758 0.950583 2.77758L2.60058 0.78758C2.61058 0.76758 2.63058 0.75758 2.66058 0.75758Z M1.26 3.89107L1.26 4.29107C1.26 4.32107 1.23 4.35107 1.2 4.35107L0.06 4.35107C0.03 4.35107 0 4.38107 0 4.41107L0 4.91107C0 4.94107 0.03 4.97107 0.06 4.97107L1.21 4.97107C1.24 4.97107 1.27 5.00107 1.27 5.04107L1.27 6.00107C1.27 6.03107 1.24 6.06107 1.21 6.06107L0.06 6.06107C0.03 6.06107 0 6.09107 0 6.13107L0 6.62107C0 6.66107 0.03 6.69107 0.06 6.69107L3.09 6.69107C3.12 6.69107 3.15 6.66107 3.15 6.62107L3.15 6.13107C3.15 6.09107 3.12 6.06107 3.09 6.06107L1.95 6.06107C1.92 6.06107 1.88 6.03107 1.88 6.00107L1.88 5.04107C1.88 5.00107 1.92 4.97107 1.95 4.97107L3.09 4.97107C3.12 4.97107 3.15 4.94107 3.15 4.91107L3.15 4.41107C3.15 4.38107 3.12 4.35107 3.09 4.35107L1.95 4.35107C1.92 4.35107 1.88 4.32107 1.88 4.29107L1.88 3.89107C1.88 3.85107 1.85 3.83107 1.82 3.83107L1.32 3.83107C1.29 3.83107 1.26 3.86107 1.26 3.89107Z M5.80451 6.69C5.81451 6.71 5.83451 6.71 5.85451 6.71L6.45451 6.71C6.50451 6.71 6.54451 6.66 6.50451 6.61L5.24451 4.85C5.23451 4.83 5.23451 4.8 5.24451 4.78L6.00451 3.47C6.01451 3.45 6.01451 3.44 6.01451 3.43L6.01451 1.6C6.01451 1.57 6.03451 1.53 6.07451 1.53L6.28451 1.53C6.31451 1.53 6.35451 1.51 6.35451 1.47L6.35451 0.98C6.35451 0.95 6.31451 0.92 6.28451 0.92L4.20451 0.92C4.17451 0.92 4.13451 0.89 4.13451 0.86L4.13451 0.06C4.13451 0.03 4.10451 0 4.07451 0L3.57451 0C3.54451 0 3.51451 0.03 3.51451 0.06L3.51451 1.47C3.51451 1.5 3.54451 1.53 3.57451 1.53L5.32451 1.53C5.35451 1.53 5.38451 1.57 5.38451 1.6L5.38451 3.27C5.38451 3.28 5.38451 3.29 5.37451 3.3L4.87451 4.17C4.85451 4.21 4.80451 4.21 4.77451 4.17L4.14451 3.28C4.13451 3.27 4.13451 3.26 4.13451 3.25L4.13451 2.12C4.13451 2.08 4.10451 2.05 4.07451 2.05L3.57451 2.05C3.54451 2.05 3.51451 2.08 3.51451 2.12L3.51451 3.45C3.51451 3.46 3.51451 3.47 3.52451 3.48L4.46451 4.82C4.47451 4.84 4.47451 4.86 4.46451 4.88L3.47451 6.63C3.45451 6.67 3.48451 6.72 3.52451 6.72L4.09451 6.72C4.11451 6.72 4.13451 6.71 4.14451 6.69L4.84451 5.48C4.86451 5.44 4.92451 5.44 4.95451 5.48L5.80451 6.69Z M7.52106 6.6551L10.0811 6.6551C10.1211 6.6551 10.1511 6.6251 10.1511 6.5951L10.1511 2.8751C10.1511 2.8451 10.1211 2.8151 10.0811 2.8151L7.52106 2.8151C7.49106 2.8151 7.46106 2.8451 7.46106 2.8751L7.46106 3.3751C7.46106 3.4051 7.48106 3.4251 7.52106 3.4251L9.47106 3.4251C9.50106 3.4251 9.53106 3.4651 9.53106 3.4951L9.53106 5.9751C9.53106 6.0151 9.50106 6.0451 9.47106 6.0451L8.14106 6.0451C8.11106 6.0451 8.07106 6.0151 8.07106 5.9751L8.07106 4.6951C8.07106 4.6651 8.11106 4.6351 8.14106 4.6351L9.01106 4.6351C9.04106 4.6351 9.07106 4.6051 9.07106 4.5751L9.07106 4.0751C9.07106 4.0451 9.04106 4.0151 9.01106 4.0151L7.52106 4.0151C7.49106 4.0151 7.46106 4.0451 7.46106 4.0751L7.46106 6.5951C7.46106 6.6251 7.49106 6.6551 7.52106 6.6551Z M10.0811 2.28154C10.1211 2.28154 10.1511 2.25154 10.1511 2.22154L10.1511 1.72154C10.1511 1.69154 10.1211 1.66154 10.0811 1.66154L7.52106 1.66154C7.49106 1.66154 7.46106 1.69154 7.46106 1.72154L7.46106 2.22154C7.46106 2.25154 7.48106 2.28154 7.52106 2.28154L10.0811 2.28154Z M13.1525 2.20758C13.1525 2.24758 13.1825 2.27758 13.2225 2.27758L13.7125 2.27758C13.7425 2.27758 13.7825 2.24758 13.7825 2.20758L13.7825 0.19758C13.7825 0.16758 13.7425 0.13758 13.7125 0.13758L10.6325 0.13758C10.6025 0.13758 10.5725 0.16758 10.5725 0.19758L10.5725 2.17758C10.5725 2.20758 10.6025 2.24758 10.6325 2.24758L11.1325 2.24758C11.1625 2.24758 11.1925 2.20758 11.1925 2.17758L11.1925 0.81758C11.1925 0.78758 11.2225 0.75758 11.2525 0.75758L13.0925 0.75758C13.1225 0.75758 13.1525 0.79758 13.1525 0.82758L13.1525 2.20758Z M10.1593 0.560583C10.1593 0.530583 10.1293 0.500583 10.0993 0.500583L9.16931 0.500583C9.12931 0.500583 9.09931 0.470583 9.09931 0.430583L9.09931 0.0705831C9.10931 0.0305831 9.07931 0.0105831 9.04931 0.0105831L8.54931 0.0105831C8.51931 0.0105831 8.48931 0.0405831 8.48931 0.0705831L8.48931 0.430583C8.48931 0.470583 8.45931 0.500583 8.41931 0.500583L7.48931 0.500583C7.45931 0.500583 7.42931 0.530583 7.42931 0.560583L7.42931 1.06058C7.42931 1.09058 7.45931 1.12058 7.48931 1.12058L10.0993 1.12058C10.1293 1.12058 10.1593 1.09058 10.1593 1.06058L10.1593 0.560583Z M11.6517 5.4151C11.6817 5.4351 11.6817 5.4851 11.6517 5.5151L10.4117 6.6051C10.3717 6.6451 10.3917 6.7051 10.4517 6.7051L11.2017 6.7051C11.2117 6.7051 11.2317 6.6951 11.2417 6.6951L12.1317 5.9151C12.1517 5.8951 12.1917 5.8951 12.2117 5.9151L13.1017 6.6951C13.1117 6.7051 13.1217 6.7051 13.1417 6.7051L13.8817 6.7051C13.9417 6.7051 13.9717 6.6351 13.9317 6.6051L12.6917 5.5151C12.6617 5.4951 12.6617 5.4551 12.6917 5.4151L13.7517 4.4851C13.7717 4.4751 13.7817 4.4551 13.7817 4.4451L13.7817 2.8751C13.7817 2.8451 13.7517 2.8151 13.7117 2.8151L10.6317 2.8151C10.6017 2.8151 10.5717 2.8451 10.5717 2.8751L10.5717 4.4451C10.5717 4.4651 10.5817 4.4751 10.5917 4.4851L11.6517 5.4151Z M11.2169 4.19891L12.1369 5.01891C12.1569 5.03891 12.2069 5.03891 12.2269 5.01891L13.1469 4.19891C13.1569 4.18891 13.1669 4.17891 13.1669 4.15891L13.1669 3.48891C13.1669 3.45891 13.1369 3.42891 13.0969 3.42891L11.2569 3.42891C11.2269 3.42891 11.1969 3.45891 11.1969 3.48891L11.1969 4.15891C11.1969 4.17891 11.1969 4.19891 11.2169 4.19891Z " /></g></g></g></g></svg>