<?xml version="1.0" encoding="UTF-8"?>
<svg width="128px" height="128px" viewBox="0 0 128 128" version="1.1" xmlns="http://www.w3.org/2000/svg" xmlns:xlink="http://www.w3.org/1999/xlink">
    <title>TIKTOK</title>
    <defs>
        <path d="M80,15 L80.0031067,15.3637649 C80.2057985,27.2348219 90.2974127,37.7869601 101.655439,37.9968157 L102,38 L102,54 L101.382548,53.9945612 C93.4904861,53.8555025 86.095617,51.0574951 79.9999613,46.4811168 L80,80 C79.728457,96.0622255 66.6251181,109 50.5,109 C34.2075999,109 21,95.7924001 21,79.5 C21,62.8119935 35.2737663,50.3459042 53.9202613,50.0982512 L54.4866349,50.0944947 L54.4866349,66.0944947 C43.9149697,66.0944947 37,72.0528842 37,79.5 C37,86.9558441 43.0441559,93 50.5,93 C57.8522907,93 63.8318345,87.1225714 63.9965146,79.8098308 L64,79.5 L64,15 L80,15 Z" id="path-1"></path>
    </defs>
    <g id="TIKTOK" stroke="none" stroke-width="1" fill="none" fill-rule="evenodd">
        <rect id="矩形" fill="#1C0B1A" x="0" y="0" width="128" height="128"></rect>
        <path d="M84,20 L84.0031067,20.3637649 C84.2057985,32.2348219 94.2974127,42.7869601 105.655439,42.9968157 L106,43 L106,59 L105.382548,58.9945612 C97.4904861,58.8555025 90.095617,56.0574951 83.9999613,51.4811168 L84,85 C83.728457,101.062226 70.6251181,114 54.5,114 C38.2075999,114 25,100.7924 25,84.5 C25,67.8119935 39.2737663,55.3459042 57.9202613,55.0982512 L58.4866349,55.0944947 L58.4866349,71.0944947 C47.9149697,71.0944947 41,77.0528842 41,84.5 C41,91.9558441 47.0441559,98 54.5,98 C61.8522907,98 67.8318345,92.1225714 67.9965146,84.8098308 L68,84.5 L68,20 L84,20 Z" id="3" fill="#F91955" fill-rule="nonzero"></path>
        <mask id="mask-2" fill="white">
            <use xlink:href="#path-1"></use>
        </mask>
        <use id="2" fill="#25EDE8" fill-rule="nonzero" xlink:href="#path-1"></use>
        <path d="M84,19 L84.0031067,19.3637649 C84.2057985,31.2348219 94.2974127,41.7869601 105.655439,41.9968157 L106,42 L106,58 L105.382548,57.9945612 C97.4904861,57.8555025 90.095617,55.0574951 83.9999613,50.4811168 L84,84 C83.728457,100.062226 70.6251181,113 54.5,113 C38.2075999,113 25,99.7924001 25,83.5 C25,66.8119935 39.2737663,54.3459042 57.9202613,54.0982512 L58.4866349,54.0944947 L58.4866349,70.0944947 C47.9149697,70.0944947 41,76.0528842 41,83.5 C41,90.9558441 47.0441559,97 54.5,97 C61.8522907,97 67.8318345,91.1225714 67.9965146,83.8098308 L68,83.5 L68,19 L84,19 Z" id="1" fill="#FFFFFF" fill-rule="nonzero" mask="url(#mask-2)"></path>
    </g>
</svg>