<svg xmlns="http://www.w3.org/2000/svg" xmlns:xlink="http://www.w3.org/1999/xlink" width="30" height="30" viewBox="0 0 30 30" fill="none"><defs><rect id="path_0" x="0" y="0" width="30" height="30" /></defs><g opacity="1" transform="translate(0 0)  rotate(0 15 15)"><mask id="bg-mask" fill="white"><use xlink:href="#path_0"></use></mask><g mask="url(#bg-mask)" ><path id="矩形 1" fill-rule="evenodd" style="fill:#FFFFFF" transform="translate(0 0)  rotate(0 15 15)" opacity="1" d="M0,30L30,30L30,0L0,0L0,30Z " /><g opacity="1" transform="translate(2.9623210775021107 2.9625057063642544)  rotate(0 12.03767892249789 12.03749429363586)"><path id="路径 1" fill-rule="evenodd" style="fill:#FFA943" transform="translate(0.4363311840118058 0.43555295120518167)  rotate(0 11.599659031177522 11.602459297975484)" opacity="1" d="M3.26,3.26C-1.19,7.72 -1.07,15.06 3.53,19.67C7.54,23.67 13.61,24.29 18.05,21.45C18.72,21.03 20.19,21.29 20.77,20.71C21.45,20.02 21.2,18.51 21.66,17.71C24.25,13.29 23.56,7.43 19.67,3.54C15.06,-1.07 7.72,-1.19 3.26,3.26Z " /><path id="分组 1" fill-rule="evenodd" style="fill:#3F2D26" transform="translate(0 0)  rotate(0 12.037678922497921 12.037494293635893)" opacity="1" d="M0.96 16.39C1.58 17.89 2.49 19.24 3.66 20.41C4.67 21.43 5.83 22.25 7.11 22.86C8.35 23.45 9.66 23.83 11.01 23.99C11.48 24.05 11.95 24.07 12.41 24.07C14.66 24.07 16.86 23.45 18.73 22.25C18.94 22.12 19.37 22.07 19.78 22.02C20.42 21.95 21.09 21.87 21.52 21.45C22.01 20.96 22.1 20.23 22.2 19.53C22.26 19.09 22.32 18.63 22.48 18.36C23.14 17.23 23.61 15.99 23.86 14.69C24.1 13.42 24.14 12.11 23.97 10.8C23.79 9.49 23.4 8.21 22.82 7.02C22.21 5.78 21.4 4.65 20.41 3.66C19.25 2.49 17.89 1.59 16.39 0.96C14.94 0.35 13.41 0.03 11.85 0C10.29 -0.02 8.77 0.25 7.34 0.8C5.85 1.38 4.53 2.25 3.39 3.39C2.26 4.52 1.39 5.85 0.81 7.33C0.25 8.76 -0.02 10.28 0 11.85C0.03 13.41 0.35 14.94 0.96 16.39Z M20.9032 20.8377C21.1732 20.5577 21.2532 19.9777 21.3332 19.4177C21.4032 18.8877 21.4732 18.3477 21.7232 17.9177C24.2732 13.5777 23.4732 7.96772 19.7932 4.27772C17.5332 2.01772 14.5732 0.877723 11.6532 0.877723C8.86319 0.877723 6.10319 1.91772 4.01319 4.00772C1.94319 6.07772 0.823191 8.85772 0.873191 11.8377C0.923191 14.8277 2.13319 17.6477 4.28319 19.7977C6.51319 22.0277 9.48319 23.1977 12.4432 23.1977C14.4732 23.1977 16.4932 22.6477 18.2532 21.5177C18.6432 21.2777 19.1732 21.2077 19.6832 21.1577C20.1532 21.1077 20.6932 21.0477 20.9032 20.8377Z " /><path id="路径 4" fill-rule="evenodd" style="fill:#E89131" transform="translate(7.531042517852711 0.8578851119589217)  rotate(0 7.810821688477886 9.77310251890642)" opacity="1" d="M12.22,3.39C8.87,0.06 4,-0.86 0,0.82C2.18,0.74 5.77,0.82 7.92,2.19C11.17,4.26 15.84,8.65 13.57,16.48C13.57,16.48 13.09,17.74 13.16,18.15C13.21,18.4 13.32,19.02 13.49,19.55C13.89,18.82 13.75,17.62 14.14,16.95C16.63,12.73 15.97,7.12 12.22,3.39Z " /><path id="路径 5" fill-rule="evenodd" style="fill:#3F2D26" transform="translate(3.211218299102711 2.8420784310217186)  rotate(0 9.1201171875 9.120117187500002)" opacity="1" d="M18.15,17.7L0.54,0.09C0.42,-0.03 0.22,-0.03 0.09,0.09C-0.03,0.22 -0.03,0.42 0.09,0.54L17.7,18.15C17.82,18.27 18.02,18.27 18.15,18.15C18.27,18.02 18.27,17.82 18.15,17.7Z " /><path id="分组 2" fill-rule="evenodd" style="fill:#3F2D26" transform="translate(2.976110877227711 2.6069710091467186)  rotate(0 9.353759765625 9.3541259765625)" opacity="1" d="M18.55 18.55C18.76 18.33 18.76 17.98 18.55 17.77L0.94 0.16C0.73 -0.05 0.37 -0.05 0.16 0.16C-0.05 0.37 -0.05 0.73 0.16 0.94L17.77 18.55C17.88 18.66 18.02 18.71 18.16 18.71C18.3 18.71 18.44 18.66 18.55 18.55Z M0.490215 0.485088C0.460215 0.525088 0.460215 0.575088 0.490215 0.605088L18.1002 18.2151C18.1302 18.2451 18.1902 18.2451 18.2202 18.2151C18.2502 18.1851 18.2502 18.1251 18.2202 18.0951L0.610215 0.485088C0.590215 0.475088 0.570215 0.465088 0.550215 0.465088C0.530215 0.465088 0.510215 0.475088 0.490215 0.485088Z " /></g></g></g></svg>