<svg xmlns="http://www.w3.org/2000/svg" xmlns:xlink="http://www.w3.org/1999/xlink" width="30" height="30" viewBox="0 0 30 30" fill="none"><defs><rect id="path_0" x="0" y="0" width="30" height="30" /><rect id="path_1" x="0" y="0" width="28" height="28" /></defs><g opacity="1" transform="translate(0 0)  rotate(0 15 15)"><mask id="bg-mask" fill="white"><use xlink:href="#path_0"></use></mask><g mask="url(#bg-mask)" ><path id="矩形 1" fill-rule="evenodd" style="fill:#EF6D1E" transform="translate(0 0)  rotate(0 15 15)" opacity="1" d="M0,30L30,30L30,0L0,0L0,30Z " /><g opacity="1" transform="translate(1 1)  rotate(0 14 14)"><mask id="bg-mask" fill="white"><use xlink:href="#path_1"></use></mask><g mask="url(#bg-mask)" ><path id="分组 1" fill-rule="evenodd" style="fill:#484659" transform="translate(6.061350723738562 6.629781664881406)  rotate(0 5.968341060526295 3.8581951050592966)" opacity="1" d="M7.73 0.03C6.7 -0.06 5.67 0.05 4.67 0.27C4.33 0.34 4.01 0.47 3.69 0.61C2.91 0.95 2.17 1.41 1.56 2C0.91 2.61 0.36 3.37 0.13 4.23C-0.01 4.74 -0.04 5.27 0.06 5.79C0.22 6.58 0.77 7.23 1.4 7.72C1.59 7.29 1.82 6.89 2.11 6.54C1.86 6.21 1.91 5.75 2.08 5.39C2.34 4.83 2.8 4.4 3.24 3.98C4.16 3.22 5.31 2.68 6.52 2.59C6.78 2.59 7.05 2.6 7.31 2.59C8.13 2.65 8.96 2.85 9.67 3.29C9.99 3.49 10.31 3.81 10.29 4.22C10.31 4.26 10.29 4.34 10.35 4.35C10.76 4.46 11.15 4.62 11.53 4.8C11.93 4.12 12.05 3.28 11.82 2.53C11.52 1.72 10.82 1.14 10.07 0.75C9.34 0.38 8.55 0.08 7.73 0.03Z M6.74312 0.508636C6.45312 0.698636 6.27312 1.07864 6.37312 1.41864C6.50312 1.88864 6.95312 2.16864 7.39312 2.30864C8.05312 2.50864 8.82312 2.47864 9.41312 2.08864C9.66312 1.92864 9.85312 1.65864 9.87312 1.35864C9.87312 0.978636 9.60312 0.668636 9.31312 0.478636C8.79312 0.158636 8.16312 0.0686363 7.56312 0.168636C7.27312 0.208636 6.98312 0.328636 6.74312 0.508636Z M1.43698 2.20776C1.19698 2.41776 0.946984 2.64776 0.796984 2.93776C0.576984 3.29776 0.446984 3.76776 0.606984 4.17776C0.726984 4.46776 1.02698 4.68776 1.34698 4.67776C1.94698 4.71776 2.50698 4.36776 2.90698 3.94776C3.32698 3.52776 3.62698 2.91776 3.49698 2.31776C3.38698 1.88776 2.90698 1.65776 2.47698 1.72776C2.09698 1.78776 1.72698 1.93776 1.43698 2.20776Z " /><path id="分组 2" fill-rule="evenodd" style="fill:#FFFFFF" transform="translate(6.598335117186913 6.758417950491949)  rotate(0 5.7997820744980695 3.4375356484282)" opacity="1" d="M6.20614 0.38C5.91614 0.57 5.73614 0.95 5.83614 1.29C5.96614 1.76 6.41614 2.04 6.85614 2.18C7.51614 2.38 8.28614 2.35 8.87614 1.96C9.12614 1.8 9.31614 1.53 9.33614 1.23C9.33614 0.85 9.06614 0.54 8.77614 0.35C8.25614 0.03 7.62614 -0.06 7.02614 0.04C6.73614 0.08 6.44614 0.2 6.20614 0.38Z M6.12679 0.929514C6.01679 1.23951 6.15679 1.58951 6.41679 1.76951C7.00679 2.19951 7.85679 2.23951 8.47679 1.85951C8.68679 1.73951 8.84679 1.49951 8.86679 1.24951C8.84679 0.959514 8.63679 0.729514 8.40679 0.579514C8.00679 0.339514 7.53679 0.269514 7.08679 0.329514C6.70679 0.409514 6.29679 0.559514 6.12679 0.929514Z M0.9 2.07912C0.66 2.28912 0.41 2.51912 0.26 2.80912C0.04 3.16912 -0.09 3.63912 0.07 4.04912C0.19 4.33912 0.49 4.55912 0.81 4.54912C1.41 4.58912 1.97 4.23912 2.37 3.81912C2.79 3.39912 3.09 2.78912 2.96 2.18912C2.85 1.75912 2.37 1.52912 1.94 1.59912C1.56 1.65912 1.19 1.80912 0.9 2.07912Z M0.543622 2.95196C0.363622 3.29196 0.283622 3.76196 0.573622 4.06196C0.843622 4.31196 1.25362 4.28196 1.56362 4.14196C2.08362 3.93196 2.51362 3.49196 2.68362 2.96196C2.77362 2.69196 2.76362 2.36196 2.57362 2.14196C2.39362 1.92196 2.07362 1.89196 1.80362 1.94196C1.26362 2.07196 0.803622 2.47196 0.543622 2.95196Z M11.2679 6.52635C11.4179 6.55635 11.6979 6.39635 11.5679 6.22635C11.4779 6.09635 11.4279 5.91635 11.2779 5.85635C11.1679 5.89635 11.0379 5.95635 10.9979 6.06635C11.0579 6.23635 11.1579 6.38635 11.2679 6.52635Z M10.386 6.20673C10.376 6.31673 10.466 6.39673 10.506 6.48673C10.596 6.61673 10.646 6.76673 10.756 6.86673C10.886 6.89673 11.026 6.79673 11.086 6.68673C11.066 6.51673 10.926 6.39673 10.856 6.24673C10.806 6.15673 10.746 5.99673 10.616 6.04673C10.526 6.07673 10.436 6.12673 10.386 6.20673Z " /><g opacity="1" transform="translate(6.981956974223951 7.067931714735102)  rotate(0 4.239919950388026 1.9694722567651104)"><path id="路径 10" fill-rule="evenodd" style="fill:#2E252F" transform="translate(5.703172641407659 0)  rotate(0 1.388333629684195 0.9052478500171706)" opacity="1" d="M0.04,0.62C-0.07,0.93 0.07,1.28 0.33,1.46C0.92,1.89 1.77,1.93 2.39,1.55C2.6,1.43 2.76,1.19 2.78,0.94C2.76,0.65 2.55,0.42 2.32,0.27C1.92,0.03 1.45,-0.04 1,0.02C0.62,0.1 0.21,0.25 0.04,0.62Z " /><path id="路径 11" fill-rule="evenodd" style="fill:#2E252F" transform="translate(0 1.6124508198429206)  rotate(0 1.1778410833233341 1.163246846843649)" opacity="1" d="M0.16,1.03C-0.02,1.37 -0.1,1.84 0.19,2.14C0.46,2.39 0.87,2.36 1.18,2.22C1.7,2.01 2.13,1.57 2.3,1.04C2.39,0.77 2.38,0.44 2.19,0.22C2.01,0 1.69,-0.03 1.42,0.02C0.88,0.15 0.42,0.55 0.16,1.03Z " /></g><path id="路径 12" fill-rule="evenodd" style="fill:#FFD16A" transform="translate(7.999480442188407 9.2227734375)  rotate(0 4.178045984501311 1.9713476562500007)" opacity="1" d="M1.3,1.39C0.86,1.81 0.4,2.23 0.14,2.8C-0.03,3.15 -0.08,3.62 0.18,3.94C0.34,3.83 0.48,3.67 0.64,3.54C1.55,2.71 2.66,2.13 3.83,1.76C4.74,1.51 5.69,1.4 6.63,1.49C7.21,1.53 7.78,1.63 8.34,1.74C8.35,1.7 8.35,1.66 8.36,1.63C8.37,1.21 8.05,0.9 7.73,0.7C7.02,0.26 6.19,0.06 5.37,0C5.11,0.01 4.84,0 4.58,0C3.37,0.09 2.23,0.62 1.3,1.39Z " /><path id="分组 4" fill-rule="evenodd" style="fill:#FBA88E" transform="translate(4.825078124999995 10.68233346623238)  rotate(0 9.335408699296634 5.573706642850817)" opacity="1" d="M6.76 4.29C6.86 4.38 6.92 4.51 6.99 4.62C7.37 5.19 7.77 5.74 8.29 6.17C8.76 6.49 9.22 6.86 9.78 7.02C9.92 6.71 9.94 6.38 9.99 6.05C10.06 5.66 10.07 5.25 10.11 4.85C10.11 4.78 10.19 4.72 10.26 4.75C10.78 5.32 11.34 5.89 11.98 6.34C12.53 6.73 13.18 7.09 13.87 7.01C13.94 7.02 13.95 7.09 13.97 7.14C14.1 7.63 14.07 8.16 13.89 8.64C13.77 8.87 13.62 9.09 13.44 9.29C13.31 9.47 13.11 9.56 12.94 9.7C13.03 9.87 13.26 9.9 13.42 9.97C13.52 9.96 13.63 9.96 13.7 10.04C13.73 10.1 13.68 10.15 13.64 10.19C13.3 10.44 12.92 10.64 12.54 10.81C12.56 10.84 12.58 10.85 12.62 10.85C13.21 10.86 13.82 10.88 14.41 10.76C15.07 10.46 15.69 10.05 16.2 9.52C16.49 9.22 16.69 8.84 16.86 8.46C16.91 8.37 16.94 8.26 17.04 8.2C17.26 8.06 17.49 7.94 17.71 7.8C18.12 7.54 18.46 7.14 18.64 6.69C18.66 6.63 18.71 6.52 18.62 6.5C18.22 6.46 17.78 6.4 17.45 6.15C17.22 5.97 17.05 5.73 16.9 5.49C16.67 5.09 16.45 4.69 16.26 4.28C16.04 3.83 15.85 3.36 15.54 2.97C15.38 2.74 15.19 2.53 15.03 2.3C14.36 1.67 13.6 1.13 12.77 0.75C12.39 0.57 11.99 0.41 11.59 0.3C11.53 0.28 11.54 0.21 11.53 0.17C11.53 0.2 11.52 0.24 11.52 0.28C10.95 0.17 10.38 0.07 9.8 0.03C8.87 -0.06 7.91 0.05 7.01 0.3C5.84 0.67 4.72 1.25 3.81 2.08C3.66 2.21 3.52 2.37 3.35 2.48C3.06 2.84 2.82 3.24 2.64 3.66C2.45 4.1 2.3 4.57 2.23 5.04C2.07 5.63 1.8 6.21 1.41 6.68C1.12 7.03 0.72 7.32 0.26 7.38C0.17 7.39 0.05 7.37 0 7.47C0.11 7.94 0.49 8.32 0.93 8.5C1.22 8.62 1.53 8.67 1.84 8.69C1.89 8.69 1.92 8.72 1.94 8.75C2.16 9.15 2.45 9.51 2.78 9.82C3.65 10.71 4.91 11.17 6.14 11.15C6.28 11.12 6.44 11.13 6.55 11.02C5.92 10.83 5.29 10.57 4.78 10.15C4.73 10.11 4.7 10.04 4.74 9.99C4.82 9.93 4.92 9.96 5 9.97C5.19 9.93 5.4 9.96 5.55 9.83C5.37 9.66 5.11 9.59 4.97 9.37C4.8 9.19 4.65 8.97 4.59 8.72C4.4 8.2 4.36 7.62 4.53 7.09C4.89 6.04 5.56 5.09 6.44 4.41C6.53 4.34 6.63 4.23 6.76 4.29Z M13.0412 2.60243C13.1912 2.63243 13.4712 2.47243 13.3412 2.30243C13.2512 2.17243 13.2012 1.99243 13.0512 1.93243C12.9412 1.97243 12.8112 2.03243 12.7712 2.14243C12.8312 2.31243 12.9312 2.46243 13.0412 2.60243Z M12.1592 2.28282C12.1492 2.39282 12.2392 2.47282 12.2792 2.56282C12.3692 2.69282 12.4192 2.84282 12.5292 2.94282C12.6592 2.97282 12.7992 2.87282 12.8592 2.76282C12.8392 2.59282 12.6992 2.47282 12.6292 2.32282C12.5792 2.23282 12.5192 2.07282 12.3892 2.12282C12.2992 2.15282 12.2092 2.20282 12.1592 2.28282Z " /><path id="分组 5" fill-rule="evenodd" style="fill:#FFF1DC" transform="translate(9.245474946293841 14.951981303778814)  rotate(0 4.815320011519049 3.571842399306618)" opacity="1" d="M6.75 6.95C6.72 6.93 6.7 6.91 6.67 6.9C6.82 6.95 6.96 6.87 7.1 6.86C7.44 6.76 7.78 6.67 8.12 6.54C8.5 6.37 8.88 6.17 9.22 5.92C9.26 5.88 9.31 5.83 9.28 5.77C9.21 5.69 9.1 5.69 9 5.7C8.62 5.86 8.19 5.84 7.79 5.75C7.59 5.69 7.31 5.61 7.27 5.36C7.29 5.14 7.53 5.05 7.71 4.99C8.14 4.87 8.61 4.85 9.02 5.02C9.2 4.82 9.35 4.6 9.47 4.37C9.65 3.89 9.68 3.36 9.55 2.87C9.53 2.82 9.52 2.75 9.45 2.74C8.76 2.82 8.11 2.46 7.56 2.07C6.92 1.62 6.36 1.05 5.84 0.48C5.77 0.45 5.69 0.51 5.69 0.58C5.65 0.98 5.64 1.39 5.57 1.78C5.52 2.11 5.5 2.44 5.36 2.75C4.8 2.59 4.34 2.22 3.87 1.9C3.35 1.47 2.95 0.92 2.57 0.35C2.5 0.24 2.44 0.11 2.33 0.02C2.21 -0.04 2.11 0.07 2.02 0.14C1.14 0.83 0.47 1.77 0.11 2.82C-0.06 3.35 -0.02 3.93 0.17 4.45C0.23 4.7 0.38 4.92 0.55 5.1C0.78 4.99 1.03 4.95 1.28 4.96C1.6 4.95 1.94 4.98 2.22 5.13C2.33 5.19 2.44 5.29 2.43 5.42C2.42 5.55 2.3 5.64 2.19 5.7C1.87 5.85 1.5 5.87 1.14 5.85C0.95 5.84 0.75 5.82 0.58 5.7C0.5 5.69 0.4 5.66 0.32 5.72C0.28 5.77 0.31 5.84 0.36 5.88C0.87 6.3 1.5 6.56 2.13 6.75C3.58 7.12 5.11 7.3 6.58 6.97C6.59 6.96 6.6 6.94 6.61 6.94C6.66 6.94 6.7 6.95 6.75 6.95Z M1.86922 3.07295C1.86922 3.54295 1.86922 4.01295 1.86922 4.49295C1.87922 4.78295 2.13922 5.04295 2.42922 5.04295C2.72922 5.05295 3.01922 4.79295 3.01922 4.49295C3.02922 4.00295 3.02922 3.52295 3.01922 3.03295C3.00922 2.70295 2.65922 2.43295 2.32922 2.50295C2.06922 2.55295 1.86922 2.80295 1.86922 3.07295Z M6.7228 3.06276C6.7228 3.54276 6.7228 4.01276 6.7228 4.49276C6.7328 4.84276 7.1028 5.11276 7.4328 5.03276C7.6928 4.98276 7.8928 4.72276 7.8828 4.46276C7.8828 3.99276 7.8928 3.51276 7.8828 3.04276C7.8728 2.70276 7.5228 2.43276 7.1928 2.50276C6.9328 2.55276 6.7228 2.79276 6.7228 3.06276Z " /><g opacity="1" transform="translate(11.114692748641781 17.44473736998798)  rotate(0 3.008330224613338 1.2776273172957118)"><path id="路径 19" fill-rule="evenodd" style="fill:#521F37" transform="translate(0 0.00019386076613514547)  rotate(0 0.5782166527238516 1.274389049700587)" opacity="1" d="M0,0.58C0,1.05 0,1.52 0,2C0.01,2.29 0.27,2.55 0.56,2.55C0.86,2.56 1.15,2.3 1.15,2C1.16,1.51 1.16,1.03 1.15,0.54C1.14,0.21 0.79,-0.06 0.46,0.01C0.2,0.06 0,0.31 0,0.58Z " /><path id="路径 20" fill-rule="evenodd" style="fill:#521F37" transform="translate(4.8535862814939605 0)  rotate(0 0.5815370838663547 1.2776273172957118)" opacity="1" d="M0,0.57C0,1.05 0,1.52 0,2C0.01,2.35 0.38,2.62 0.71,2.54C0.97,2.49 1.17,2.23 1.16,1.97C1.16,1.5 1.17,1.02 1.16,0.55C1.15,0.21 0.8,-0.06 0.47,0.01C0.21,0.06 0,0.3 0,0.57Z " /></g><g opacity="1" transform="translate(9.797812500000003 19.849399020709523)  rotate(0 4.235546875 0.48098802715894085)"><path id="路径 21" fill-rule="evenodd" style="fill:#FD9B90" transform="translate(6.721093750000005 0)  rotate(0 0.875 0.4601414301846172)" opacity="1" d="M0,0.47C0.04,0.71 0.31,0.79 0.52,0.85C0.91,0.94 1.35,0.96 1.73,0.8C1.56,0.73 1.34,0.71 1.24,0.53C1.42,0.4 1.62,0.3 1.75,0.12C1.34,-0.04 0.86,-0.03 0.44,0.09C0.26,0.15 0.02,0.25 0,0.47Z " /><path id="路径 22" fill-rule="evenodd" style="fill:#FD9B90" transform="translate(0 0.057910792911130216)  rotate(0 0.939135301277772 0.45203263070337196)" opacity="1" d="M0.58,0.6C0.43,0.73 0.21,0.7 0.03,0.75C0.19,0.86 0.4,0.88 0.59,0.9C0.94,0.92 1.31,0.9 1.64,0.74C1.75,0.69 1.87,0.6 1.88,0.46C1.89,0.33 1.78,0.23 1.67,0.18C1.38,0.02 1.05,-0.01 0.73,0C0.48,-0.01 0.23,0.04 0,0.14C0.14,0.36 0.39,0.44 0.58,0.6Z " /></g></g></g></g></g></svg>