<svg xmlns="http://www.w3.org/2000/svg" xmlns:xlink="http://www.w3.org/1999/xlink" width="30" height="30" viewBox="0 0 30 30" fill="none"><defs><rect id="path_0" x="0" y="0" width="30" height="30" /><rect id="path_1" x="0" y="0" width="18" height="18" /></defs><g opacity="1" transform="translate(0 0)  rotate(0 15 15)"><mask id="bg-mask" fill="white"><use xlink:href="#path_0"></use></mask><g mask="url(#bg-mask)" ><path id="矩形 1" fill-rule="evenodd" style="fill:#ED1C24" transform="translate(0 0)  rotate(0 15 15)" opacity="1" d="M0,30L30,30L30,0L0,0L0,30Z " /><g opacity="1" transform="translate(5.999999999999979 6)  rotate(0 9 9)"><mask id="bg-mask" fill="white"><use xlink:href="#path_1"></use></mask><g mask="url(#bg-mask)" ><path id="分组 1" fill-rule="evenodd" style="fill:#FFFFFF" transform="translate(0 0)  rotate(0 9 9)" opacity="1" d="M1.02 6.73367C0.74 8.46367 0.41 9.96367 0 11.2437L0.21 11.3337C0.69 10.7937 1.14 10.2137 1.54 9.61367L3.01 18.0037L3.46 17.9237C3.89 17.8537 4.32 17.6837 4.75 17.4237C5.12 17.1837 5.32 17.0037 5.32 16.9037L3.57 6.91367C3.87 6.80367 4.04 6.66367 4.05 6.48367L3.22 6.34367C3.69 5.13367 4.07 3.81367 4.35 2.39367C4.75 2.32367 4.96 2.16367 4.99 1.91367L1.43 1.51367C1.42 3.18367 1.29 4.92367 1.02 6.73367Z M6.73198 5.66C7.07198 5.54 7.23198 5.36 7.23198 5.11L4.35198 5.34L6.45198 17.34L6.87198 17.27C7.26198 17.21 7.68198 17.03 8.06198 16.81C8.44198 16.58 8.61198 16.41 8.60198 16.29L8.54198 15.97L17.542 14.43C17.832 14.39 17.982 14.27 18.002 14.07C17.392 13.71 16.552 13.25 15.502 12.68C15.692 12.59 15.882 12.48 16.052 12.34C16.172 12.24 16.232 12.17 16.232 12.14L14.902 4.53C15.222 4.42 15.442 4.26 15.552 4.05L13.162 2.8L12.222 4.3L11.532 4.42C11.512 3.84 11.492 3.27 11.482 2.7L15.352 2.04C15.642 1.99 15.792 1.87 15.812 1.68C15.392 1.42 14.832 1.1 14.122 0.71L13.172 0.2L12.192 2.08L11.462 2.2C11.432 1.48 11.412 0.97 11.392 0.68C11.792 0.54 11.982 0.31 11.992 0L8.64198 0.29L9.05198 2.62L4.75198 3.35L4.97198 3.8L9.13198 3.1L9.37198 4.55L7.33198 4.18L9.10198 14.28L9.54198 14.21C10.072 14.12 10.532 13.96 10.912 13.75C11.222 13.56 11.372 13.42 11.352 13.32L11.272 12.89L13.732 12.47L13.842 13.13L14.272 13.05C14.582 13 14.892 12.92 15.182 12.81L14.302 14.49L8.45198 15.49L6.73198 5.66Z M12.7463 6.85684L12.3763 4.76684L9.92633 5.18684L10.2963 7.27684L12.7463 6.85684Z M13.1765 9.35443L12.8265 7.33443L10.3765 7.75443L10.7265 9.77443L13.1765 9.35443Z M13.6458 11.9948L13.2658 9.8348L10.8158 10.2548L11.1958 12.4148L13.6458 11.9948Z " /></g></g></g></g></svg>