<svg xmlns="http://www.w3.org/2000/svg" xmlns:xlink="http://www.w3.org/1999/xlink" width="512" height="512" viewBox="0 0 512 512">
  <defs>
    <clipPath id="clip-path">
      <path id="路径_3" data-name="路径 3" d="M120,0H392A120,120,0,0,1,512,120V392A120,120,0,0,1,392,512H120A120,120,0,0,1,0,392V120A120,120,0,0,1,120,0Z" transform="translate(414 100)" fill="#fff"/>
    </clipPath>
    <linearGradient id="linear-gradient" x1="0.5" y1="-0.476" x2="0.5" y2="2.624" gradientUnits="objectBoundingBox">
      <stop offset="0" stop-color="#fff" stop-opacity="0"/>
      <stop offset="1" stop-color="gray"/>
    </linearGradient>
    <filter id="路径_1" x="156.983" y="161.047" width="203.71" height="202.032" filterUnits="userSpaceOnUse">
      <feOffset dy="3" input="SourceAlpha"/>
      <feGaussianBlur stdDeviation="3" result="blur"/>
      <feFlood flood-opacity="0.161"/>
      <feComposite operator="in" in2="blur"/>
      <feComposite in="SourceGraphic"/>
    </filter>
    <clipPath id="clip-画板_1">
      <rect width="512" height="512"/>
    </clipPath>
  </defs>
  <g id="画板_1" data-name="画板 – 1" clip-path="url(#clip-画板_1)">
    <rect width="512" height="512" fill="#fff"/>
    <path id="路径_1-2" data-name="路径 1" d="M120,0H392A120,120,0,0,1,512,120V392A120,120,0,0,1,392,512H120A120,120,0,0,1,0,392V120A120,120,0,0,1,120,0Z" fill="#fff"/>
    <g id="蒙版组_1" data-name="蒙版组 1" transform="translate(-414 -100)" opacity="0.228" clip-path="url(#clip-path)">
      <g id="组_3" data-name="组 3">
        <line id="直线_1" data-name="直线 1" x2="645" transform="translate(344.5 220.5)" fill="none" stroke="#707070" stroke-width="2"/>
        <line id="直线_3" data-name="直线 3" x2="645" transform="translate(347.5 506.5)" fill="none" stroke="#707070" stroke-width="2"/>
        <line id="直线_2" data-name="直线 2" x2="645" transform="translate(347.5 363.5)" fill="none" stroke="#707070" stroke-width="2"/>
        <g id="组_2" data-name="组 2" transform="translate(1414 -294) rotate(90)">
          <line id="直线_4" data-name="直线 4" x2="645" transform="translate(333.5 603.5)" fill="none" stroke="#707070" stroke-width="2"/>
          <line id="直线_6" data-name="直线 6" x2="645" transform="translate(336.5 889.5)" fill="none" stroke="#707070" stroke-width="2"/>
          <line id="直线_5" data-name="直线 5" x2="645" transform="translate(336.5 746.5)" fill="none" stroke="#707070" stroke-width="2"/>
        </g>
      </g>
    </g>
    <rect id="矩形_2" data-name="矩形 2" width="512" height="512" fill="url(#linear-gradient)"/>
    <g id="组_4" data-name="组 4" transform="translate(-548 3)">
      <path id="路径_2" data-name="路径 2" d="M161.629,0h82.756A161.629,161.629,0,0,1,406.015,161.629v82.756A161.629,161.629,0,0,1,244.385,406.015H161.629A161.629,161.629,0,0,1,0,244.385V161.629A161.629,161.629,0,0,1,161.629,0Z" transform="translate(532.091 346.015) rotate(-64)" fill="#9274f6"/>
      <g transform="matrix(1, 0, 0, 1, 548, -3)" filter="url(#路径_1)">
        <path id="路径_1-3" data-name="路径 1" d="M172.866,209.915l26.8,26.8a6.632,6.632,0,1,1-9.379,9.379l-33.427-33.428-33.428,33.428a6.632,6.632,0,1,1-9.379-9.379l26.8-26.795H70.633a6.632,6.632,0,1,1,0-13.265h6.632V90.53H70.633a6.632,6.632,0,1,1,0-13.265h79.59V70.633a6.632,6.632,0,1,1,13.265,0v6.632h79.59a6.632,6.632,0,1,1,0,13.265h-6.632V196.65h6.632a6.632,6.632,0,1,1,0,13.265Zm-23.89-83.583,27.777,27.777,18.478-18.478a6.632,6.632,0,1,1,9.379,9.379l-23.161,23.173a6.606,6.606,0,0,1-9.392,0L144.28,140.406l-53.75,53.75v2.494H223.18V90.53H90.53V175.4l49.067-49.08a6.633,6.633,0,0,1,9.378,0Z" transform="translate(101.98 103.05)" fill="#fff"/>
      </g>
    </g>
  </g>
</svg>
