<svg xmlns="http://www.w3.org/2000/svg" xmlns:xlink="http://www.w3.org/1999/xlink" width="32" height="32" viewBox="0 0 32 32" fill="none"><g opacity="1" transform="translate(0 0)  rotate(0 16 16)"><path id="路径 1" fill-rule="evenodd" style="fill:#FFD95A" transform="translate(0 0)  rotate(0 16 16)" opacity="1" d="M0,32L32,32L32,0L0,0L0,32Z " /><path id="图形标识" fill-rule="evenodd" style="fill:#252525" transform="translate(8 6.21052631578948)  rotate(0 8 9.789473684210524)" opacity="1" d="M5.26368 3.16C3.98368 3.16 2.94368 2.13 2.94368 0.84L2.94368 0.74C2.94368 0.33 2.62368 0 2.21368 0C1.80368 0 1.47368 0.33 1.47368 0.74L1.47368 0.84C1.47368 2.94 3.16368 4.63 5.26368 4.63L10.7337 4.63C12.8337 4.63 14.5237 2.94 14.5237 0.84L14.5237 0.74C14.5237 0.33 14.2037 0 13.7937 0C13.3837 0 13.0537 0.33 13.0537 0.74L13.0537 0.84C13.0537 2.13 12.0137 3.16 10.7337 3.16L5.26368 3.16Z M5.26737 15.5811C5.26737 14.9411 4.74737 14.4211 4.10737 14.4211C3.46737 14.4211 2.94737 14.9411 2.94737 15.5811C2.94737 16.2211 3.46737 16.7411 4.10737 16.7411C4.74737 16.7411 5.26737 16.2211 5.26737 15.5811Z M11.8968 14.4211C11.2568 14.4211 10.7368 14.9411 10.7368 15.5811C10.7368 16.2211 11.2568 16.7411 11.8968 16.7411C12.5368 16.7411 13.0568 16.2211 13.0568 15.5811C13.0568 14.9411 12.5368 14.4211 11.8968 14.4211Z M4 11.5789C1.79 11.5789 0 13.3689 0 15.5789C0 17.7889 1.79 19.5789 4 19.5789L12 19.5789C14.21 19.5789 16 17.7889 16 15.5789C16 13.3689 14.21 11.5789 12 11.5789L4 11.5789Z M14.5237 15.5826C14.5237 14.1826 13.4037 13.0526 12.0037 13.0526L4.00368 13.0526C2.60368 13.0526 1.47368 14.1826 1.47368 15.5826C1.47368 16.9826 2.60368 18.1026 4.00368 18.1026L12.0037 18.1026C13.4037 18.1026 14.5237 16.9826 14.5237 15.5826Z M5.26737 8.10737C5.26737 7.46737 4.74737 6.94737 4.10737 6.94737C3.46737 6.94737 2.94737 7.46737 2.94737 8.10737C2.94737 8.74737 3.46737 9.26737 4.10737 9.26737C4.74737 9.26737 5.26737 8.74737 5.26737 8.10737Z M11.1568 8.52421L12.6268 8.52421C12.8668 8.52421 13.0568 8.33421 13.0568 8.10421C13.0568 7.87421 12.8668 7.68421 12.6268 7.68421L11.1568 7.68421C10.9268 7.68421 10.7368 7.87421 10.7368 8.10421C10.7368 8.33421 10.9268 8.52421 11.1568 8.52421Z " /></g></svg>