<svg width="100" height="100" viewBox="0 0 100 100" fill="none" xmlns="http://www.w3.org/2000/svg">
<path d="M100 0H0V100H100V0Z" fill="white"/>
<path d="M75.35 69.8528C77.5302 72.3124 75.7032 77.4211 71.1242 75.1729C61.6635 70.5265 59.7881 78.573 49.9731 78.8605C40.1574 79.1485 38.0187 70.5268 28.8443 75.1729C24.2929 77.477 22.4378 72.3124 24.6177 69.8528C27.6597 66.4226 30.5243 62.4944 30.5833 48.132C30.5582 47.6725 30.5833 47.5075 30.5833 47.0423C30.5833 41.1991 32.6175 35.8895 35.9337 31.9604C35.5993 31.5708 35.2482 31.0639 34.9008 30.4782C34.868 30.4231 34.8367 30.3672 34.807 30.3103C34.4734 29.739 34.1695 29.1508 33.8965 28.5482C33.6116 27.9203 33.3579 27.2788 33.1363 26.6259C33.1105 26.5443 33.0801 26.4626 33.0587 26.3807C32.9287 25.9731 32.8141 25.5608 32.7149 25.1446C32.2775 23.2432 32.359 21.6153 33.4495 21.1536C34.0682 20.8913 34.8157 21.6321 35.6827 22.7224C35.7131 22.7612 35.7476 22.8005 35.7814 22.8428C35.8205 22.8906 35.859 22.938 35.8975 22.9893C36.4641 23.7217 37.0914 24.5792 37.7734 25.3721C37.8261 25.432 37.8768 25.4928 37.9289 25.5533C37.9587 25.5875 37.9888 25.6214 38.0187 25.6567C38.8443 26.5851 39.749 27.4006 40.7321 27.8039C43.5086 26.0953 46.6957 25.1234 50.0857 25.1234C53.3903 25.1234 56.5029 26.0478 59.2303 27.6777C60.1063 27.2434 60.9175 26.4971 61.6638 25.657C61.6942 25.6214 61.7246 25.5875 61.7541 25.5533L61.9087 25.3721C62.5919 24.5789 63.219 23.722 63.7849 22.9893C63.824 22.938 63.8625 22.8906 63.9016 22.8428C63.9355 22.8005 63.9699 22.7612 64 22.7224C64.8673 21.6321 65.6142 20.8913 66.2335 21.1536C67.3234 21.615 67.4059 23.2432 66.9676 25.144C66.8687 25.5603 66.754 25.9728 66.6237 26.3804C66.6029 26.4624 66.5725 26.544 66.5467 26.6256C66.3245 27.2782 66.071 27.9197 65.7871 28.5479C65.5137 29.1504 65.2096 29.7386 64.876 30.31C64.8465 30.3662 64.8161 30.4215 64.7816 30.4779C64.5153 30.9267 64.2475 31.3291 63.9855 31.6681C67.4508 35.6249 69.5881 41.0529 69.5881 47.0426C69.5881 47.3842 69.587 47.3958 69.5731 47.7342C69.58 62.4021 72.2825 66.3936 75.35 69.8531V69.8528Z" fill="#0692FF"/>
<path d="M49.9858 57.3088C56.357 57.3088 61.5196 52.0961 61.5196 45.6679C61.5196 43.446 60.9015 41.3709 59.8255 39.6018C59.8255 39.5972 59.8214 39.5931 59.8174 39.5882C57.7961 36.2546 54.1502 34.0322 49.9861 34.0322C43.6155 34.0322 38.4483 39.2408 38.4483 45.6679C38.4437 48.5583 39.5122 51.3475 41.4466 53.4953C43.5587 55.8355 46.599 57.3088 49.9858 57.3088Z" fill="white"/>
<path d="M52.4378 37.5024C55.6625 37.5024 58.2769 40.1392 58.2769 43.3937C58.2769 46.6467 55.6625 49.2837 52.4378 49.2837C49.2131 49.2837 46.5986 46.6467 46.5986 43.3937C46.5986 40.1392 49.2131 37.5024 52.4378 37.5024Z" fill="#293D50"/>
</svg>
