<?xml version="1.0" encoding="UTF-8"?>
<svg width="128px" height="128px" viewBox="0 0 128 128" version="1.1" xmlns="http://www.w3.org/2000/svg" xmlns:xlink="http://www.w3.org/1999/xlink">
    <title>石墨</title>
    <g id="石墨" stroke="none" stroke-width="1" fill="none" fill-rule="evenodd">
        <rect id="5" fill="#FFFFFF" x="0" y="0" width="128" height="128"></rect>
        <path d="M56.9422857,61.64 C58.1422857,61.64 59.1748572,60.66 60.04,58.7 L70.59,58.7 C71.1422847,58.7 71.59,59.1477153 71.59,59.7 L71.59,60.46 L71.59,60.46 L72.16,60.46 C72.16,60.46 72.16,60.46 72.16,60.46 C73.8334138,60.46 75.1899836,59.1034301 75.19,57.4300164 L75.19,48.38 L75.19,48.38 C75.82,48.23 76.3,47.93 76.54,47.69 L72.97,44.9 L71.26,46.85 L60.4,46.85 L59.05,46.31 C60.9199631,43.8709177 62.3982144,41.1870156 63.4184055,38.5015712 C62.002038,38.3155481 60.9427008,38.0283577 60.240394,37.64 C62.7635285,37.64 64.0742783,37.64 64.1726436,37.64 C67.0676117,37.64 71.4100638,37.64 77.2,37.64 C77.65,37.64 78.01,37.49 78.07,37.16 C76.87,36.152 75.0748,34.76 74.40472,34.24352 L74.20954,34.09334 C74.1643,34.0586 74.14,34.04 74.14,34.04 L71.95,36.77 L50.29,36.77 L50.53,37.64 L59.29,37.64 C58.03,43.31 54.37,49.79 49.63,54.17 L49.9,54.44 C52.36,53.03 54.58,51.26 56.5,49.28 L56.5,61.64 L56.9422857,61.64 Z M71.59,57.83 L60.04,57.83 L60.04,47.69 L71.59,47.69 L71.59,57.83 Z" id="石" fill="#000000" fill-rule="nonzero"></path>
        <path d="M76.87,86.13 C77.29,86.13 77.62,85.98 77.71,85.65 C77.4988889,85.4611111 77.2620576,85.2567901 77.0162719,85.0492303 L76.7181039,84.7993842 C75.717037,83.9665844 74.68,83.16 74.68,83.16 L73.03,85.29 L65.41,85.29 L65.41,83.07 L74.62,83.07 C75.04,83.07 75.34,82.92 75.43,82.59 C74.68,81.9 73.6,81.03 73,80.52 C73.54,80.34 73.96,80.1 73.96,79.98 L73.96,73.47 C74.41,73.35 74.71,73.14 74.86,72.96 L71.89,70.71 L70.42,72.24 L57.4,72.24 L53.98,70.86 L53.98,81.39 L54.43,81.39 C55.75,81.39 57.19,80.73 57.19,80.4 L57.19,79.77 L62.35,79.77 L62.35,82.23 L52.72,82.23 L52.96,83.07 L62.35,83.07 L62.35,85.29 L50.32,85.29 L50.56,86.13 L76.87,86.13 Z M62.56,78.93 L57.19,78.93 L57.19,73.11 L62.56,73.11 L62.56,78.93 Z M70.66,78.93 L65.23,78.93 L65.23,73.11 L70.66,73.11 L70.66,75.06 L67.69,73.56 C67.3,74.79 66.58,77.1 66.01,78.51 L66.31,78.75 C67.45,77.88 69.37,76.59 70.27,75.75 C70.42,75.78 70.54,75.78 70.66,75.78 L70.66,78.93 Z M57.76,73.92 L57.43,74.1 C58.18,75.15 59.05,76.77 59.2,78.18 C61.39,80.07 63.97,75.87 57.76,73.92 Z M70.96,82.23 L65.41,82.23 L65.41,79.77 L70.66,79.77 L70.66,80.91 L71.23,80.91 C71.5,80.91 71.77,80.88 72.04,80.82 L70.96,82.23 Z M53.32,91.59 C54.58,90.93 55.51,89.1 54.91,86.46 L54.46,86.43 C54.22,87.33 52.9,88.23 51.97,88.56 C51.1,88.95 50.47,89.73 50.74,90.69 C51.07,91.8 52.48,92.04 53.32,91.59 Z M71.56,86.46 L71.29,86.7 C72.58,87.69 74.14,89.49 74.71,90.96 C77.68,92.49 79.33,86.79 71.56,86.46 Z M65.8,86.52 L65.53,86.7 C66.25,87.63 67.06,89.16 67.21,90.48 C69.73,92.37 72.43,87.63 65.8,86.52 Z M58.09,86.52 L57.76,86.67 C58.24,87.69 58.69,89.22 58.63,90.51 C60.73,92.64 63.91,88.65 58.09,86.52 Z M77.35,97.26 C77.77,97.26 78.1,97.11 78.19,96.78 C77.8858621,96.5048276 77.5310345,96.1999405 77.1677084,95.8957165 L76.8551888,95.6358239 C75.8130797,94.77478 74.8,93.99 74.8,93.99 L72.91,96.39 L65.71,96.39 L65.71,92.91 L74.53,92.91 C74.95,92.91 75.28,92.76 75.37,92.43 C74.11,91.29 72.04,89.7 72.04,89.7 L70.21,92.04 L65.71,92.04 L65.71,89.97 C66.43,89.85 66.67,89.58 66.73,89.19 L62.17,88.8 L62.17,92.04 L52.81,92.04 L53.05,92.91 L62.17,92.91 L62.17,96.39 L49.81,96.39 L50.05,97.26 L77.35,97.26 Z" id="墨" fill="#000000" fill-rule="nonzero"></path>
    </g>
</svg>