<svg xmlns="http://www.w3.org/2000/svg" xmlns:xlink="http://www.w3.org/1999/xlink" width="30" height="30" viewBox="0 0 30 30" fill="none"><defs><rect id="path_0" x="0" y="0" width="30" height="30" /></defs><g opacity="1" transform="translate(0 0)  rotate(0 15 15)"><mask id="bg-mask" fill="white"><use xlink:href="#path_0"></use></mask><g mask="url(#bg-mask)" ><path id="矩形 1" fill-rule="evenodd" style="fill:#FFFFFF" transform="translate(0 0)  rotate(0 15 15)" opacity="1" d="M0,30L30,30L30,0L0,0L0,30Z " /><g opacity="1" transform="translate(2.923976608187134 2.9239766081871346)  rotate(0 12.076023391812866 12.076023391812866)"><path id="圆形 1" fill-rule="evenodd" style="fill:#303030" transform="translate(0 0)  rotate(0 12.076023391812866 12.076023391812866)" opacity="1" d="M12.08,0C5.41,0 0,5.41 0,12.08C0,18.75 5.41,24.15 12.08,24.15C18.75,24.15 24.15,18.75 24.15,12.08C24.15,5.41 18.75,0 12.08,0Z " /><g opacity="1" transform="translate(4.853801169590646 4.7368421052631575)  rotate(0 3.2748538011695905 1.7543859649122806)"><path id="路径 4" fill-rule="evenodd" style="fill:#FDFDFD" transform="translate(-1.2434497875801753e-14 1.4210854715202004e-14)  rotate(0 3.2748538011695905 1.7543859649122806)" opacity="1" d="M0.28,0.74C-0.09,1.03 -0.09,1.31 0.28,1.58C1.26,2.09 2.23,2.62 3.19,3.17C4.3,3.72 5.33,3.6 6.28,2.8C6.6,2.56 6.64,2.29 6.38,2C5.42,1.51 4.49,0.99 3.56,0.45C2.97,0.11 2.33,-0.04 1.64,0.01C1.14,0.15 0.68,0.39 0.28,0.74Z " /></g><g opacity="1" transform="translate(10.64327485380117 5.029239766081872)  rotate(0 4.415204678362573 2.456140350877193)"><path id="路径 5" fill-rule="evenodd" style="fill:#FDFDFD" transform="translate(0.05847953216374435 0)  rotate(0 4.415204678362573 2.456140350877193)" opacity="1" d="M0.94,3.01C0.71,3.13 0.48,3.24 0.24,3.33C-0.03,3.54 -0.07,3.78 0.12,4.06C1.1,5.02 2.19,5.17 3.4,4.51C5.08,3.53 6.76,2.55 8.45,1.59C8.57,1.52 8.67,1.44 8.76,1.33C8.85,1.21 8.85,1.08 8.76,0.96C8.13,0.23 7.34,-0.08 6.37,0.02C6,0.12 5.64,0.27 5.29,0.46C3.82,1.29 2.38,2.13 0.94,3.01Z " /></g><g opacity="1" transform="translate(3.0994152046783627 8.538011695906434)  rotate(0 3.6549707602339185 3.1871345029239766)"><path id="路径 6" fill-rule="evenodd" style="fill:#FDFDFD" transform="translate(-8.881784197001252e-16 2.842170943040401e-14)  rotate(0 3.6549707602339185 3.1871345029239766)" opacity="1" d="M0.1,0.28C-0.18,1.4 0.11,2.34 0.97,3.09C1.54,3.45 2.12,3.8 2.71,4.13C3.99,4.79 5.25,5.5 6.47,6.26C6.69,6.42 6.9,6.41 7.1,6.24C7.53,5.1 7.3,4.12 6.42,3.28C4.63,2.25 2.83,1.22 1.02,0.21C0.8,0.07 0.57,0 0.31,0C0.23,0.08 0.16,0.18 0.1,0.28Z " /></g><g opacity="1" transform="translate(16.31578947368421 8.771929824561404)  rotate(0 2.4853801169590644 2.573099415204678)"><path id="路径 7" fill-rule="evenodd" style="fill:#FDFDFD" transform="translate(1.7763568394002505e-15 0)  rotate(0 2.4853801169590644 2.573099415204678)" opacity="1" d="M1.16,1.87C0.32,2.44 -0.07,3.24 0.01,4.26C0.01,4.59 0.11,4.89 0.32,5.14C0.51,5.16 0.7,5.13 0.88,5.04C1.78,4.45 2.71,3.9 3.66,3.39C3.92,3.21 4.16,3.01 4.39,2.8C5.01,1.97 5.13,1.07 4.77,0.1C4.64,0.02 4.49,-0.02 4.32,0.01C3.29,0.65 2.23,1.27 1.16,1.87Z " /></g><g opacity="1" transform="translate(13.333333333333334 12.280701754385966)  rotate(0 1.286549707602339 4.502923976608187)"><path id="路径 8" fill-rule="evenodd" style="fill:#FDFDFD" transform="translate(0 0)  rotate(0 1.286549707602339 4.502923976608187)" opacity="1" d="M1.02,0.45C0.49,0.85 0.15,1.38 0,2.02C-0.01,4.22 0.01,6.41 0.05,8.61C0.14,8.96 0.37,9.08 0.73,8.96C1.74,8.61 2.35,7.91 2.55,6.87C2.55,4.73 2.56,2.6 2.57,0.47C2.58,0.31 2.52,0.17 2.38,0.07C2.2,0.01 2.01,-0.01 1.82,0C1.55,0.15 1.29,0.3 1.02,0.45Z " /></g><g opacity="1" transform="translate(8.07017543859649 14.97076023391813)  rotate(0 1.3157894736842106 3.216374269005848)"><path id="路径 9" fill-rule="evenodd" style="fill:#FCFCFC" transform="translate(0 -1.7763568394002505e-15)  rotate(0 1.3157894736842106 3.216374269005848)" opacity="1" d="M0,0.28C0.01,1.53 0.02,2.77 0.05,4.02C0.21,5.26 0.89,6.06 2.09,6.4C2.36,6.49 2.54,6.4 2.63,6.14C2.62,4.77 2.59,3.4 2.54,2.03C2.2,0.84 1.43,0.16 0.21,0C0.13,0.09 0.06,0.18 0,0.28Z " /></g></g></g></g></svg>