<?xml version="1.0" encoding="UTF-8"?>
<svg width="1024px" height="1024px" viewBox="0 0 1024 1024" version="1.1" xmlns="http://www.w3.org/2000/svg" xmlns:xlink="http://www.w3.org/1999/xlink">
    <title>android_logo_zhixi_512</title>
    <defs>
        <linearGradient x1="46.2269713%" y1="29.4841766%" x2="46.2269713%" y2="100%" id="linearGradient-1">
            <stop stop-color="#71F482" offset="0%"></stop>
            <stop stop-color="#10C36E" offset="100%"></stop>
        </linearGradient>
        <linearGradient x1="46.2269713%" y1="8.76123998%" x2="46.2269713%" y2="100%" id="linearGradient-2">
            <stop stop-color="#58F17D" offset="0%"></stop>
            <stop stop-color="#10CF74" offset="100%"></stop>
        </linearGradient>
        <path d="M240,0 L784,0 C916.54834,-2.4348735e-14 1024,107.45166 1024,240 L1024,784 C1024,916.54834 916.54834,1024 784,1024 L240,1024 C107.45166,1024 1.623249e-14,916.54834 0,784 L0,240 C-1.623249e-14,107.45166 107.45166,2.4348735e-14 240,0 Z" id="path-3"></path>
        <path d="M324.141673,2.91076915 C326.56587,6.67472497 323.287616,10.3404201 322.287771,11.4252084 C287.755799,46.230598 268.13431,79.6913182 263.423304,111.807369 C271.070341,114.153516 279.062423,116.058971 287.399714,117.524022 C314.494583,184.192492 373.853933,253.476429 456.790951,315.247588 C493.0966,284.223543 521.870704,242.336026 543.116503,189.583694 C544.952761,185.530216 548.429446,174.830079 554.253234,175.223381 C560.077021,175.616682 561.835546,184.879562 562.615984,189.793713 C571.021794,234.000055 560.844033,292.503116 532.082699,365.302898 C545.027888,372.999212 558.365363,380.503714 572.069796,387.792532 C612.756352,345.216024 641.416556,274.551232 651.026457,167.19796 C651.1451,165.87259 651.24562,164.453475 651.357977,163.011745 L651.41528,162.289325 C651.922858,156.017727 652.746441,149.544084 656.323705,148.656243 C661.057995,147.102341 668.113797,156.505804 671.942708,165.684712 C690.516613,213.227077 697.962852,252.204786 700.676928,301.036371 C704.372789,351.011227 698.326957,396.821992 682.539433,438.468665 C682.539379,438.468956 682.539713,438.469086 682.540047,438.469217 C665.866806,482.49911 614.590249,599.71915 487.015274,645.038609 C362.96727,677.235046 252.344234,653.090878 155.146167,572.606107 L122.810974,602.321605 C46.8770954,538.811543 5.94010395,449.380069 0,334.027184 C7.02590802,206.559015 50.0255392,113.49923 128.998893,54.8478299 C136.952963,48.9405551 149.705147,40.8649949 167.255446,30.6211494 C174.000094,43.6681055 181.849792,55.3052785 190.804538,65.5326682 C207.684275,50.9442469 241.35511,16.4350239 314.410817,0.288450904 C316.444639,0.0622525918 322.048739,-0.952096989 324.141673,2.91076915 Z M348.52603,385.434411 C333.767641,385.434411 321.803603,397.398449 321.803603,412.156838 C321.803603,426.915227 333.767641,438.879266 348.52603,438.879266 C363.284419,438.879266 375.248458,426.915227 375.248458,412.156838 C375.248458,397.398449 363.284419,385.434411 348.52603,385.434411 Z" id="path-5"></path>
        <path d="M357.556039,715.112077 C555.028786,715.112077 715.112077,555.028786 715.112077,357.556039 C715.112077,160.083291 555.028786,4.54747351e-13 357.556039,4.54747351e-13 C160.083291,4.54747351e-13 0,160.083291 0,357.556039 C0,555.028786 160.083291,715.112077 357.556039,715.112077 Z" id="path-7"></path>
        <linearGradient x1="18.1242081%" y1="33.418241%" x2="94.2358688%" y2="98.1191986%" id="linearGradient-9">
            <stop stop-color="#FFFFFF" stop-opacity="0" offset="0%"></stop>
            <stop stop-color="#B1FFC3" offset="100%"></stop>
        </linearGradient>
        <linearGradient x1="52.2420904%" y1="30.1348528%" x2="47.1521774%" y2="98.1231438%" id="linearGradient-10">
            <stop stop-color="#B1FFC3" offset="0%"></stop>
            <stop stop-color="#FFFFFF" stop-opacity="0" offset="100%"></stop>
        </linearGradient>
        <linearGradient x1="52.6463158%" y1="28.3821373%" x2="48.2061119%" y2="93.1535927%" id="linearGradient-11">
            <stop stop-color="#B1FFC3" offset="0%"></stop>
            <stop stop-color="#FFFFFF" stop-opacity="0" offset="100%"></stop>
        </linearGradient>
        <linearGradient x1="76.0070996%" y1="9.12737506%" x2="18.641017%" y2="88.1134424%" id="linearGradient-12">
            <stop stop-color="#B1FFC3" offset="0%"></stop>
            <stop stop-color="#FFFFFF" stop-opacity="0" offset="100%"></stop>
        </linearGradient>
    </defs>
    <g id="app" stroke="none" stroke-width="1" fill="none" fill-rule="evenodd">
        <g id="Artboard" transform="translate(-814.000000, -917.000000)">
            <g id="Group-3" transform="translate(814.000000, 917.000000)">
                <g id="Group-5">
                    <rect id="Rectangle" fill="url(#linearGradient-1)" x="3.63797881e-12" y="0" width="1024" height="1024" rx="511.834987"></rect>
                    <g id="Group-6">
                        <mask id="mask-4" fill="white">
                            <use xlink:href="#path-3"></use>
                        </mask>
                        <use id="Rectangle" fill="url(#linearGradient-2)" xlink:href="#path-3"></use>
                        <polygon id="路径" fill="#109754" opacity="0.077007" mask="url(#mask-4)" points="313.099275 811.361067 1034.50899 1191.44654 1353.90472 713.594482 781.37293 410.903813 764.862761 557.751902 365.620784 716.319579"></polygon>
                    </g>
                </g>
                <g id="Group-2" transform="translate(68.557555, 63.639828)">
                    <g id="logo2" transform="translate(435.487800, 421.719041) rotate(-18.000000) translate(-435.487800, -421.719041) translate(84.623527, 92.300113)">
                        <g id="图形" transform="translate(0.000000, 0.000000)">
                            <mask id="mask-6" fill="white">
                                <use xlink:href="#path-5"></use>
                            </mask>
                            <use id="蒙版" fill="#E1FFE9" xlink:href="#path-5"></use>
                            <g id="Group" mask="url(#mask-6)">
                                <g transform="translate(58.575733, -26.549552)">
                                    <mask id="mask-8" fill="white">
                                        <use xlink:href="#path-7"></use>
                                    </mask>
                                    <use id="椭圆形" stroke="none" fill="#FFFFFF" fill-rule="evenodd" xlink:href="#path-7"></use>
                                    <path d="M399.021403,341.865087 C326.591758,329.7274 245.68505,280.474487 156.301277,194.106349 L290.290163,83.8152964 L399.021403,341.865087 Z" id="Path-2" stroke="none" fill="url(#linearGradient-9)" fill-rule="evenodd" opacity="0.904073661" mask="url(#mask-8)"></path>
                                </g>
                            </g>
                            <path d="M536.407687,173.139235 C545.294266,224.979003 531.993578,291.272345 496.505622,372.019262 C530.393171,385.546426 558.839484,369.826333 581.84456,324.858984 L565.165289,161.093475 L536.407687,173.139235 Z" id="路径-2" fill="url(#linearGradient-10)" mask="url(#mask-6)" transform="translate(539.175091, 268.902539) rotate(11.000000) translate(-539.175091, -268.902539) "></path>
                            <path d="M605.802542,133.144345 C687.4594,320.815737 637.973782,484.425358 457.345688,623.973208 C493.797285,645.5179 573.671147,660.77246 696.967274,669.736888 C698.348797,439.80468 694.480687,307.752336 685.362946,273.579857 C676.245204,239.407378 660.265514,189.042305 637.423878,122.484637 L605.802542,133.144345 Z" id="路径-2" fill="url(#linearGradient-11)" opacity="0.999012" mask="url(#mask-6)" transform="translate(577.292820, 396.110763) rotate(11.000000) translate(-577.292820, -396.110763) "></path>
                            <path d="M340.995106,-8.20347914 C271.767196,25.0446641 227.36682,71.7882425 207.793978,132.027256 C221.025676,136.326495 239.639094,160.261786 265.453035,110.6161 C275.083424,93.5370001 300.264114,53.9304738 340.995106,-8.20347914 Z" id="路径-3" fill="url(#linearGradient-12)" mask="url(#mask-6)"></path>
                        </g>
                    </g>
                </g>
            </g>
        </g>
    </g>
</svg>